<svg width="30" height="30" viewBox="0 0 30 30" fill="none" xmlns="http://www.w3.org/2000/svg">
<g clip-path="url(#clip0_201_14271)">
<path d="M28.8123 6.61942L15.1912 0.0436802C15.1316 0.014931 15.0663 0 15.0001 0C14.934 0 14.8686 0.014931 14.8091 0.0436802L1.18783 6.61942C1.11341 6.65536 1.05063 6.71155 1.00669 6.78155C0.962757 6.85155 0.939453 6.93252 0.939453 7.01516V22.9848C0.939453 23.0675 0.962757 23.1484 1.00669 23.2184C1.05063 23.2885 1.11341 23.3446 1.18783 23.3806L14.809 29.9563C14.8686 29.9851 14.9339 30 15.0001 30C15.0662 30 15.1316 29.9851 15.1912 29.9563L28.8123 23.3806C28.8867 23.3446 28.9495 23.2885 28.9935 23.2184C29.0374 23.1484 29.0607 23.0675 29.0607 22.9848V7.01522C29.0607 6.93257 29.0374 6.85159 28.9935 6.78159C28.9495 6.71158 28.8867 6.65537 28.8123 6.61942ZM15.0001 0.92745L27.6105 7.01516L23.955 8.77989C23.9318 8.7618 23.9069 8.74609 23.8805 8.73302L11.3558 2.68673L15.0001 0.92745ZM10.3634 3.1836L22.9554 9.26247L20.3764 10.5075L7.78959 4.43112L10.3634 3.1836ZM23.25 10.0961V14.6984L20.8411 15.8614V11.2591L23.25 10.0961ZM28.1818 22.7091L15.4395 28.8604V13.8667L18.479 12.3994C18.5309 12.3743 18.5775 12.3392 18.6159 12.2962C18.6543 12.2531 18.6838 12.2029 18.7028 12.1484C18.7218 12.0939 18.7299 12.0362 18.7266 11.9786C18.7233 11.921 18.7087 11.8646 18.6836 11.8126C18.6585 11.7606 18.6235 11.7141 18.5804 11.6757C18.5373 11.6373 18.4871 11.6077 18.4326 11.5887C18.3781 11.5697 18.3204 11.5616 18.2628 11.5649C18.2052 11.5682 18.1488 11.5828 18.0968 11.6079L15.0001 13.1029L13.7816 12.5147C13.7296 12.4895 13.6732 12.4749 13.6156 12.4716C13.558 12.4683 13.5002 12.4764 13.4458 12.4954C13.3913 12.5144 13.341 12.544 13.298 12.5824C13.2549 12.6208 13.2198 12.6673 13.1947 12.7193C13.1697 12.7713 13.155 12.8277 13.1517 12.8853C13.1485 12.9429 13.1565 13.0006 13.1755 13.0551C13.1946 13.1096 13.2241 13.1598 13.2625 13.2029C13.3009 13.246 13.3474 13.281 13.3994 13.3061L14.5606 13.8667V28.8604L1.81836 22.709V7.7153L11.5215 12.3996C11.5809 12.4284 11.6461 12.4434 11.7122 12.4434C11.8118 12.4435 11.9085 12.4098 11.9864 12.3478C12.0643 12.2858 12.1189 12.1992 12.1411 12.1021C12.1633 12.005 12.152 11.9033 12.1088 11.8135C12.0656 11.7238 11.9933 11.6513 11.9036 11.6081L2.38971 7.01516L6.75524 4.90766L19.9561 11.2805C19.958 11.2832 19.9602 11.2856 19.9621 11.2882V16.5616C19.9622 16.636 19.9811 16.7091 20.0171 16.7742C20.0531 16.8393 20.105 16.8942 20.168 16.9337C20.231 16.9733 20.303 16.9962 20.3773 17.0003C20.4516 17.0044 20.5257 16.9897 20.5927 16.9574L23.8805 15.3701C23.955 15.3342 24.0178 15.278 24.0617 15.208C24.1056 15.138 24.1289 15.057 24.1289 14.9744V9.67192L28.1818 7.71536V22.7091Z" fill="#333333"/>
<path d="M5.44489 21.0047L3.44596 20.0397C3.341 19.989 3.22021 19.9821 3.11016 20.0205C3.00011 20.0589 2.90982 20.1394 2.85914 20.2444C2.80847 20.3493 2.80156 20.4701 2.83994 20.5802C2.87833 20.6902 2.95885 20.7805 3.06381 20.8312L5.06274 21.7962C5.12218 21.825 5.18739 21.84 5.25346 21.84C5.33617 21.84 5.41721 21.8167 5.48727 21.7728C5.55733 21.7288 5.61356 21.666 5.64949 21.5915C5.6746 21.5395 5.68922 21.4831 5.69252 21.4255C5.69582 21.3679 5.68774 21.3102 5.66874 21.2557C5.64974 21.2012 5.62019 21.151 5.58178 21.1079C5.54337 21.0648 5.49686 21.0298 5.44489 21.0047ZM7.28455 19.8072L3.44871 17.9554C3.344 17.9066 3.22431 17.901 3.11551 17.9399C3.00672 17.9787 2.91757 18.0587 2.86736 18.1628C2.81715 18.2668 2.8099 18.3864 2.84719 18.4957C2.88448 18.605 2.96331 18.6953 3.06662 18.7469L6.90246 20.5987C6.96192 20.6275 7.02712 20.6425 7.09319 20.6426C7.19279 20.6427 7.2895 20.609 7.36745 20.547C7.4454 20.485 7.49997 20.3983 7.52221 20.3012C7.54445 20.2041 7.53305 20.1024 7.48987 20.0126C7.44669 19.9228 7.37429 19.8504 7.28455 19.8072Z" fill="#333333"/>
</g>
<defs>
<clipPath id="clip0_201_14271">
<rect width="30" height="30" fill="white"/>
</clipPath>
</defs>
</svg>
