<svg width="34" height="22" viewBox="0 0 34 22" fill="none" xmlns="http://www.w3.org/2000/svg">
<path d="M0 1.11084C0 0.829047 0.111942 0.558796 0.311199 0.359539C0.510456 0.160281 0.780707 0.0483398 1.0625 0.0483398H32.9375C33.2193 0.0483398 33.4895 0.160281 33.6888 0.359539C33.8881 0.558796 34 0.829047 34 1.11084C34 1.39263 33.8881 1.66288 33.6888 1.86214C33.4895 2.0614 33.2193 2.17334 32.9375 2.17334H1.0625C0.780707 2.17334 0.510456 2.0614 0.311199 1.86214C0.111942 1.66288 0 1.39263 0 1.11084ZM32.9375 9.93749H1.0625C0.780707 9.93749 0.510456 10.0494 0.311199 10.2487C0.111942 10.4479 0 10.7182 0 11C0 11.2818 0.111942 11.552 0.311199 11.7513C0.510456 11.9506 0.780707 12.0625 1.0625 12.0625H32.9375C33.2193 12.0625 33.4895 11.9506 33.6888 11.7513C33.8881 11.552 34 11.2818 34 11C34 10.7182 33.8881 10.4479 33.6888 10.2487C33.4895 10.0494 33.2193 9.93749 32.9375 9.93749ZM17 19.8266H1.0625C0.780707 19.8266 0.510456 19.9386 0.311199 20.1378C0.111942 20.3371 0 20.6074 0 20.8891C0 21.1709 0.111942 21.4412 0.311199 21.6404C0.510456 21.8397 0.780707 21.9516 1.0625 21.9516H17C17.2818 21.9516 17.552 21.8397 17.7513 21.6404C17.9506 21.4412 18.0625 21.1709 18.0625 20.8891C18.0625 20.6074 17.9506 20.3371 17.7513 20.1378C17.552 19.9386 17.2818 19.8266 17 19.8266Z" fill="black"/>
</svg>
