<?xml version="1.0" standalone="no"?>
  <!DOCTYPE svg PUBLIC "-//W3C//DTD SVG 1.1//EN" "http://www.w3.org/Graphics/SVG/1.1/DTD/svg11.dtd" >
  <svg>
  <metadata>
  Created by font-carrier
  </metadata>
  <defs>
  <font id="Inter-Bold" horiz-adv-x="7552" vert-adv-y="7552" >
    <font-face
      
      font-family="Inter"
      
      font-weight="400"
      
      font-stretch="normal"
      
      units-per-em="2816"
      
      ascent="2728"
      
      descent="-680"
      
    />
      <missing-glyph />

      

      
      <glyph glyph-name="uni41" unicode="&#x41;" d="M531 0L67 0L774 2048L1332 2048L2038 0L1574 0L1061 1580L1045 1580L531 0M502 805L1598 805L1598 467L502 467L502 805Z"  horiz-adv-x="2106" vert-adv-y="2816"  />

      
      <glyph glyph-name="unic4" unicode="&#xc4;" d="M531 0L67 0L774 2048L1332 2048L2038 0L1574 0L1061 1580L1045 1580L531 0M502 805L1598 805L1598 467L502 467L502 805M748 2258Q662 2258 600 2318.50Q538 2379 538 2462Q538 2547 600 2606Q662 2665 748 2665Q835 2665 895.50 2606Q956 2547 956 2462Q956 2379 895.50 2318.50Q835 2258 748 2258M1360 2258Q1274 2258 1212 2318.50Q1150 2379 1150 2462Q1150 2547 1212 2606Q1274 2665 1360 2665Q1447 2665 1507.50 2606Q1568 2547 1568 2462Q1568 2379 1507.50 2318.50Q1447 2258 1360 2258Z"  horiz-adv-x="2106" vert-adv-y="2816"  />

      
      <glyph glyph-name="unic3" unicode="&#xc3;" d="M531 0L67 0L774 2048L1332 2048L2038 0L1574 0L1061 1580L1045 1580L531 0M502 805L1598 805L1598 467L502 467L502 805M766 2250L530 2253Q530 2444 624 2546Q718 2648 855 2649Q925 2649 975 2626.50Q1025 2604 1066 2574Q1107 2544 1144 2521.50Q1181 2499 1224 2499Q1282 2500 1312.50 2542.50Q1343 2585 1343 2654L1576 2647Q1574 2458 1480 2355.50Q1386 2253 1250 2252Q1176 2251 1125.50 2274Q1075 2297 1037 2326.50Q999 2356 963 2379Q927 2402 882 2402Q830 2402 798 2361Q766 2320 766 2250Z"  horiz-adv-x="2106" vert-adv-y="2816"  />

      
      <glyph glyph-name="unic0" unicode="&#xc0;" d="M531 0L67 0L774 2048L1332 2048L2038 0L1574 0L1061 1580L1045 1580L531 0M502 805L1598 805L1598 467L502 467L502 805M905 2246L600 2701L993 2701L1206 2246L905 2246Z"  horiz-adv-x="2106" vert-adv-y="2816"  />

      
      <glyph glyph-name="unic1" unicode="&#xc1;" d="M531 0L67 0L774 2048L1332 2048L2038 0L1574 0L1061 1580L1045 1580L531 0M502 805L1598 805L1598 467L502 467L502 805M900 2246L1112 2701L1506 2701L1201 2246L900 2246Z"  horiz-adv-x="2106" vert-adv-y="2816"  />

      
      <glyph glyph-name="unic2" unicode="&#xc2;" d="M531 0L67 0L774 2048L1332 2048L2038 0L1574 0L1061 1580L1045 1580L531 0M502 805L1598 805L1598 467L502 467L502 805M1254 2232L1053 2476L852 2232L489 2232L489 2246L894 2686L1211 2686L1617 2246L1617 2232L1254 2232Z"  horiz-adv-x="2106" vert-adv-y="2816"  />

      
      <glyph glyph-name="unic5" unicode="&#xc5;" d="M531 0L67 0L774 2048L1332 2048L2038 0L1574 0L1061 1580L1045 1580L531 0M502 805L1598 805L1598 467L502 467L502 805M1053 2166Q925 2166 835 2254.50Q745 2343 745 2467Q745 2550 786.50 2618.50Q828 2687 898 2727.50Q968 2768 1053 2768Q1138 2768 1208 2727.50Q1278 2687 1319.50 2618.50Q1361 2550 1361 2467Q1361 2384 1319.50 2315.50Q1278 2247 1208 2206.50Q1138 2166 1053 2166M1053 2337Q1109 2337 1148 2375Q1187 2413 1187 2468Q1187 2522 1148 2560Q1109 2598 1053 2598Q997 2597 957.50 2559Q918 2521 918 2467Q918 2413 957 2374.50Q996 2336 1053 2337Z"  horiz-adv-x="2106" vert-adv-y="2816"  />

      
      <glyph glyph-name="uni01FA" unicode="&#x01FA;" d="M531 0L67 0L774 2048L1332 2048L2038 0L1574 0L1061 1580L1045 1580L531 0M502 805L1598 805L1598 467L502 467L502 805M916 2846L1116 3135L1472 3135L1188 2846L916 2846M1053 2180Q925 2180 834.50 2263.50Q744 2347 744 2466Q744 2545 785.50 2610Q827 2675 897.50 2713.50Q968 2752 1053 2752Q1180 2752 1270 2668Q1360 2584 1360 2466Q1360 2387 1319 2322Q1278 2257 1208 2218.50Q1138 2180 1053 2180M1052 2342Q1108 2342 1147.50 2378Q1187 2414 1187 2466Q1187 2517 1148 2553.50Q1109 2590 1052 2590Q996 2589 957 2553Q918 2517 918 2466Q918 2414 957 2377.50Q996 2341 1052 2342Z"  horiz-adv-x="2106" vert-adv-y="2816"  />

      
      <glyph glyph-name="uniEE02" unicode="&#xEE02;" d="M531 0L67 0L774 2048L1332 2048L2038 0L1574 0L1061 1580L1045 1580L531 0M502 805L1598 805L1598 467L502 467L502 805M1053 2166Q925 2166 835 2254.50Q745 2343 745 2467Q745 2550 786.50 2618.50Q828 2687 898 2727.50Q968 2768 1053 2768Q1138 2768 1208 2727.50Q1278 2687 1319.50 2618.50Q1361 2550 1361 2467Q1361 2384 1319.50 2315.50Q1278 2247 1208 2206.50Q1138 2166 1053 2166M1053 2337Q1109 2337 1148 2375Q1187 2413 1187 2468Q1187 2522 1148 2560Q1109 2598 1053 2598Q997 2597 957.50 2559Q918 2521 918 2467Q918 2413 957 2374.50Q996 2336 1053 2337M1844-574Q1711-574 1621.50-505.50Q1532-437 1509-310Q1494-228 1511.50-145Q1529-62 1581.50 7Q1634 76 1722 115L2039 0Q1945-44 1885-95Q1825-146 1826-218Q1825-266 1850-292Q1875-318 1923-318Q1956-318 1982-309.50Q2008-301 2028-294L2072-514Q2035-535 1977.50-554.50Q1920-574 1844-574Z"  horiz-adv-x="2106" vert-adv-y="2816"  />

      
      <glyph glyph-name="uni0100" unicode="&#x0100;" d="M531 0L67 0L774 2048L1332 2048L2038 0L1574 0L1061 1580L1045 1580L531 0M502 805L1598 805L1598 467L502 467L502 805M1540 2560L1540 2329L566 2329L566 2560L1540 2560Z"  horiz-adv-x="2106" vert-adv-y="2816"  />

      
      <glyph glyph-name="uni0102" unicode="&#x0102;" d="M531 0L67 0L774 2048L1332 2048L2038 0L1574 0L1061 1580L1045 1580L531 0M502 805L1598 805L1598 467L502 467L502 805M1251 2584L1548 2584Q1547 2402 1413.50 2291Q1280 2180 1053 2180Q825 2180 692 2291Q559 2402 559 2584L854 2584Q853 2515 898.50 2460Q944 2405 1053 2405Q1159 2405 1205 2459Q1251 2513 1251 2584Z"  horiz-adv-x="2106" vert-adv-y="2816"  />

      
      <glyph glyph-name="uni0104" unicode="&#x0104;" d="M531 0L67 0L774 2048L1332 2048L2038 0L1574 0L1061 1580L1045 1580L531 0M502 805L1598 805L1598 467L502 467L502 805M1844-574Q1711-574 1621.50-505.50Q1532-437 1509-310Q1494-228 1511.50-145Q1529-62 1581.50 7Q1634 76 1722 115L2039 0Q1945-44 1885-95Q1825-146 1826-218Q1825-266 1850-292Q1875-318 1923-318Q1956-318 1982-309.50Q2008-301 2028-294L2072-514Q2035-535 1977.50-554.50Q1920-574 1844-574Z"  horiz-adv-x="2106" vert-adv-y="2816"  />

      
      <glyph glyph-name="uni01CD" unicode="&#x01CD;" d="M531 0L67 0L774 2048L1332 2048L2038 0L1574 0L1061 1580L1045 1580L531 0M502 805L1598 805L1598 467L502 467L502 805M852 2686L1053 2442L1254 2686L1617 2686L1617 2672L1211 2232L894 2232L489 2672L489 2686L852 2686Z"  horiz-adv-x="2106" vert-adv-y="2816"  />

      
      <glyph glyph-name="uni01DE" unicode="&#x01DE;" d="M531 0L67 0L774 2048L1332 2048L2038 0L1574 0L1061 1580L1045 1580L531 0M502 805L1598 805L1598 467L502 467L502 805M748 2258Q662 2258 600 2318.50Q538 2379 538 2462Q538 2547 600 2606Q662 2665 748 2665Q835 2665 895.50 2606Q956 2547 956 2462Q956 2379 895.50 2318.50Q835 2258 748 2258M1360 2258Q1274 2258 1212 2318.50Q1150 2379 1150 2462Q1150 2547 1212 2606Q1274 2665 1360 2665Q1447 2665 1507.50 2606Q1568 2547 1568 2462Q1568 2379 1507.50 2318.50Q1447 2258 1360 2258M1540 3072L1540 2841L566 2841L566 3072L1540 3072Z"  horiz-adv-x="2106" vert-adv-y="2816"  />

      
      <glyph glyph-name="uni01E0" unicode="&#x01E0;" d="M531 0L67 0L774 2048L1332 2048L2038 0L1574 0L1061 1580L1045 1580L531 0M502 805L1598 805L1598 467L502 467L502 805M1054 2258Q966 2258 903 2318Q840 2378 840 2461Q840 2546 903 2605Q966 2664 1054 2664Q1142 2664 1204.50 2605Q1267 2546 1267 2461Q1267 2378 1204.50 2318Q1142 2258 1054 2258M1540 3072L1540 2841L566 2841L566 3072L1540 3072Z"  horiz-adv-x="2106" vert-adv-y="2816"  />

      
      <glyph glyph-name="uni0200" unicode="&#x0200;" d="M531 0L67 0L774 2048L1332 2048L2038 0L1574 0L1061 1580L1045 1580L531 0M502 805L1598 805L1598 467L502 467L502 805M669 2246L357 2701L757 2701L970 2246L669 2246M1163 2246L949 2701L1337 2701L1458 2246L1163 2246Z"  horiz-adv-x="2106" vert-adv-y="2816"  />

      
      <glyph glyph-name="uni0202" unicode="&#x0202;" d="M531 0L67 0L774 2048L1332 2048L2038 0L1574 0L1061 1580L1045 1580L531 0M502 805L1598 805L1598 467L502 467L502 805M555 2295Q554 2477 688 2593.50Q822 2710 1050 2710Q1278 2710 1412 2593.50Q1546 2477 1546 2295L1249 2295Q1249 2365 1203 2419Q1157 2473 1050 2473Q942 2473 896.50 2418.50Q851 2364 852 2295L555 2295Z"  horiz-adv-x="2106" vert-adv-y="2816"  />

      
      <glyph glyph-name="uni0226" unicode="&#x0226;" d="M531 0L67 0L774 2048L1332 2048L2038 0L1574 0L1061 1580L1045 1580L531 0M502 805L1598 805L1598 467L502 467L502 805M1053 2246Q958 2246 890 2309.50Q822 2373 822 2462Q822 2550 890 2613.50Q958 2677 1052 2677Q1148 2677 1215.50 2613.50Q1283 2550 1283 2462Q1283 2373 1215.50 2309.50Q1148 2246 1053 2246Z"  horiz-adv-x="2106" vert-adv-y="2816"  />

      
      <glyph glyph-name="uni1E00" unicode="&#x1E00;" d="M531 0L67 0L774 2048L1332 2048L2038 0L1574 0L1061 1580L1045 1580L531 0M502 805L1598 805L1598 467L502 467L502 805M785-312Q785-214 861.50-146Q938-78 1053-78Q1161-78 1238.50-146Q1316-214 1316-312Q1316-417 1238.50-483Q1161-549 1053-549Q938-549 861.50-482Q785-415 785-312M945-312Q945-358 975-386.50Q1005-415 1053-415Q1094-415 1124-386.50Q1154-358 1154-312Q1154-270 1124-242Q1094-214 1053-214Q1005-214 975-242Q945-270 945-312Z"  horiz-adv-x="2106" vert-adv-y="2816"  />

      
      <glyph glyph-name="uni1EA0" unicode="&#x1EA0;" d="M531 0L67 0L774 2048L1332 2048L2038 0L1574 0L1061 1580L1045 1580L531 0M502 805L1598 805L1598 467L502 467L502 805M1053-575Q958-575 890-512Q822-449 822-360Q822-271 890-208Q958-145 1053-145Q1148-145 1215.50-208Q1283-271 1283-360Q1283-449 1215.50-512Q1148-575 1053-575Z"  horiz-adv-x="2106" vert-adv-y="2816"  />

      
      <glyph glyph-name="uni1EA2" unicode="&#x1EA2;" d="M531 0L67 0L774 2048L1332 2048L2038 0L1574 0L1061 1580L1045 1580L531 0M502 805L1598 805L1598 467L502 467L502 805M1210 2268L894 2268L872 2448Q978 2453 1023 2476.50Q1068 2500 1067 2539Q1068 2593 1010.50 2612Q953 2631 867 2631L878 2824Q1145 2824 1284.50 2752Q1424 2680 1423 2552Q1424 2461 1357.50 2414.50Q1291 2368 1210 2356L1210 2268Z"  horiz-adv-x="2106" vert-adv-y="2816"  />

      
      <glyph glyph-name="uni1EA4" unicode="&#x1EA4;" d="M531 0L67 0L774 2048L1332 2048L2038 0L1574 0L1061 1580L1045 1580L531 0M502 805L1598 805L1598 467L502 467L502 805M532 2216L935 2527L1165 2527L1570 2216L1263 2216L1052 2384L838 2216L532 2216M1465 2392L1699 2767L2029 2767L1706 2392L1465 2392Z"  horiz-adv-x="2106" vert-adv-y="2816"  />

      
      <glyph glyph-name="uni1EA6" unicode="&#x1EA6;" d="M531 0L67 0L774 2048L1332 2048L2038 0L1574 0L1061 1580L1045 1580L531 0M502 805L1598 805L1598 467L502 467L502 805M1165 2521L1571 2210L1264 2210L1052 2378L839 2210L534 2210L936 2521L1165 2521M403 2760L638 2386L400 2386L76 2760L403 2760Z"  horiz-adv-x="2106" vert-adv-y="2816"  />

      
      <glyph glyph-name="uni1EA8" unicode="&#x1EA8;" d="M531 0L67 0L774 2048L1332 2048L2038 0L1574 0L1061 1580L1045 1580L531 0M502 805L1598 805L1598 467L502 467L502 805M1172 2516L1566 2205L1273 2205L1051 2380L826 2205L533 2205L927 2516L1172 2516M1657 2380L1436 2380L1417 2530Q1503 2534 1542 2552Q1581 2570 1581 2605Q1581 2651 1532 2667Q1483 2683 1410 2683L1420 2844Q1623 2844 1730 2784.50Q1837 2725 1837 2617Q1837 2542 1780.50 2502.50Q1724 2463 1657 2452L1657 2380Z"  horiz-adv-x="2106" vert-adv-y="2816"  />

      
      <glyph glyph-name="uni1EAA" unicode="&#x1EAA;" d="M531 0L67 0L774 2048L1332 2048L2038 0L1574 0L1061 1580L1045 1580L531 0M502 805L1598 805L1598 467L502 467L502 805M1167 2508L1570 2201L1276 2201L1051 2369L831 2201L533 2201L939 2508L1167 2508M1271 2848L1419 2797Q1418 2716 1366.50 2648.50Q1315 2581 1229 2581Q1182 2581 1142.50 2594Q1103 2607 1068.50 2625Q1034 2643 1000.50 2656Q967 2669 929 2669Q895 2669 875.50 2640.50Q856 2612 856 2574L712 2614Q712 2692 762.50 2759.50Q813 2827 900 2827Q939 2827 976.50 2814Q1014 2801 1052 2784.50Q1090 2768 1127 2755Q1164 2742 1200 2742Q1231 2742 1250.50 2776Q1270 2810 1271 2848Z"  horiz-adv-x="2106" vert-adv-y="2816"  />

      
      <glyph glyph-name="uni1EAC" unicode="&#x1EAC;" d="M531 0L67 0L774 2048L1332 2048L2038 0L1574 0L1061 1580L1045 1580L531 0M502 805L1598 805L1598 467L502 467L502 805M1254 2232L1053 2476L852 2232L489 2232L489 2246L894 2686L1211 2686L1617 2246L1617 2232L1254 2232M1053-575Q958-575 890-512Q822-449 822-360Q822-271 890-208Q958-145 1053-145Q1148-145 1215.50-208Q1283-271 1283-360Q1283-449 1215.50-512Q1148-575 1053-575Z"  horiz-adv-x="2106" vert-adv-y="2816"  />

      
      <glyph glyph-name="uni1EAE" unicode="&#x1EAE;" d="M531 0L67 0L774 2048L1332 2048L2038 0L1574 0L1061 1580L1045 1580L531 0M502 805L1598 805L1598 467L502 467L502 805M1269 2535L1546 2535Q1546 2389 1411 2297.50Q1276 2206 1047 2206Q819 2206 685.50 2297.50Q552 2389 553 2535L825 2535Q824 2476 875 2427.50Q926 2379 1047 2379Q1168 2379 1218.50 2427.50Q1269 2476 1269 2535M931 2533L1108 2789L1401 2789L1153 2533L931 2533Z"  horiz-adv-x="2106" vert-adv-y="2816"  />

      
      <glyph glyph-name="uni1EB0" unicode="&#x1EB0;" d="M531 0L67 0L774 2048L1332 2048L2038 0L1574 0L1061 1580L1045 1580L531 0M502 805L1598 805L1598 467L502 467L502 805M1269 2537L1546 2537Q1546 2395 1411.50 2303Q1277 2211 1047 2211Q819 2211 685.50 2303Q552 2395 553 2537L825 2537Q824 2478 875 2429.50Q926 2381 1047 2381Q1166 2381 1217.50 2429.50Q1269 2478 1269 2537M958 2533L708 2789L1001 2789L1176 2533L958 2533Z"  horiz-adv-x="2106" vert-adv-y="2816"  />

      
      <glyph glyph-name="uni1EB2" unicode="&#x1EB2;" d="M531 0L67 0L774 2048L1332 2048L2038 0L1574 0L1061 1580L1045 1580L531 0M502 805L1598 805L1598 467L502 467L502 805M1266 2520L1542 2520Q1543 2374 1408 2285Q1273 2196 1042 2196Q812 2196 678.50 2285Q545 2374 544 2520L818 2520Q819 2459 871 2416.50Q923 2374 1042 2374Q1163 2374 1215 2417.50Q1267 2461 1266 2520M1166 2565L906 2565L881 2707Q983 2710 1029 2726Q1075 2742 1074 2772Q1075 2818 1018.50 2832Q962 2846 876 2846L888 2995Q1130 2995 1253.50 2939.50Q1377 2884 1376 2785Q1377 2712 1311.50 2677.50Q1246 2643 1166 2634L1166 2565Z"  horiz-adv-x="2106" vert-adv-y="2816"  />

      
      <glyph glyph-name="uni1EB4" unicode="&#x1EB4;" d="M531 0L67 0L774 2048L1332 2048L2038 0L1574 0L1061 1580L1045 1580L531 0M502 805L1598 805L1598 467L502 467L502 805M1264 2525L1539 2525Q1538 2378 1404 2286.50Q1270 2195 1043 2195Q817 2195 683 2286.50Q549 2378 549 2525L822 2525Q822 2466 871.50 2422.50Q921 2379 1043 2379Q1160 2379 1211.50 2421.50Q1263 2464 1264 2525M1282 2953L1457 2900Q1457 2802 1391 2727Q1325 2652 1225 2652Q1150 2652 1098 2674.50Q1046 2697 999.50 2720Q953 2743 893 2743Q854 2743 825 2709.50Q796 2676 797 2625L625 2672Q624 2771 689 2847Q754 2923 857 2923Q902 2923 942.50 2909.50Q983 2896 1022.50 2878Q1062 2860 1103 2846.50Q1144 2833 1189 2833Q1225 2833 1253.50 2867.50Q1282 2902 1282 2953Z"  horiz-adv-x="2106" vert-adv-y="2816"  />

      
      <glyph glyph-name="uni1EB6" unicode="&#x1EB6;" d="M531 0L67 0L774 2048L1332 2048L2038 0L1574 0L1061 1580L1045 1580L531 0M502 805L1598 805L1598 467L502 467L502 805M1251 2584L1548 2584Q1547 2402 1413.50 2291Q1280 2180 1053 2180Q825 2180 692 2291Q559 2402 559 2584L854 2584Q853 2515 898.50 2460Q944 2405 1053 2405Q1159 2405 1205 2459Q1251 2513 1251 2584M1053-575Q958-575 890-512Q822-449 822-360Q822-271 890-208Q958-145 1053-145Q1148-145 1215.50-208Q1283-271 1283-360Q1283-449 1215.50-512Q1148-575 1053-575Z"  horiz-adv-x="2106" vert-adv-y="2816"  />

      
      <glyph glyph-name="uni0391" unicode="&#x0391;" d="M531 0L67 0L774 2048L1332 2048L2038 0L1574 0L1061 1580L1045 1580L531 0M502 805L1598 805L1598 467L502 467L502 805Z"  horiz-adv-x="2106" vert-adv-y="2816"  />

      
      <glyph glyph-name="uni0386" unicode="&#x0386;" d="M531 0L67 0L774 2048L1332 2048L2038 0L1574 0L1061 1580L1045 1580L531 0M502 805L1598 805L1598 467L502 467L502 805M180 1720L287 2195L668 2195L431 1720L180 1720Z"  horiz-adv-x="2106" vert-adv-y="2816"  />

      
      <glyph glyph-name="uni1F08" unicode="&#x1F08;" d="M531 0L67 0L774 2048L1332 2048L2038 0L1574 0L1061 1580L1045 1580L531 0M502 805L1598 805L1598 467L502 467L502 805M552 2048L552 1917Q552 1831 521.50 1760Q491 1689 438.50 1636.50Q386 1584 319 1552L201 1677Q243 1706 267 1743Q291 1780 301 1825.50Q311 1871 311 1925L311 2048L552 2048Z"  horiz-adv-x="2106" vert-adv-y="2816"  />

      
      <glyph glyph-name="uni1F09" unicode="&#x1F09;" d="M531 0L67 0L774 2048L1332 2048L2038 0L1574 0L1061 1580L1045 1580L531 0M502 805L1598 805L1598 467L502 467L502 805M248 1917L248 2048L491 2048L491 1925Q492 1877 501 1831.50Q510 1786 533 1746.50Q556 1707 599 1677L481 1552Q382 1600 315.50 1694Q249 1788 248 1917Z"  horiz-adv-x="2106" vert-adv-y="2816"  />

      
      <glyph glyph-name="uni1F0A" unicode="&#x1F0A;" d="M531 0L67 0L774 2048L1332 2048L2038 0L1574 0L1061 1580L1045 1580L531 0M502 805L1598 805L1598 467L502 467L502 805M602 1607L602 1587L469 1587L144 2023L144 2051L441 2051L602 1607M80 2051L80 1939Q80 1859 49 1788Q18 1717-40.50 1658Q-99 1599-182 1555L-292 1639Q-236 1702-206.50 1776Q-177 1850-178 1947L-178 2051L80 2051Z"  horiz-adv-x="2106" vert-adv-y="2816"  />

      
      <glyph glyph-name="uni1F0B" unicode="&#x1F0B;" d="M531 0L67 0L774 2048L1332 2048L2038 0L1574 0L1061 1580L1045 1580L531 0M502 805L1598 805L1598 467L502 467L502 805M600 1614L600 1582L467 1582L142 2020L142 2048L443 2048L600 1614M-215 1917L-215 2048L30 2048L30 1925Q30 1853 51 1787.50Q72 1722 140 1677L22 1552Q-82 1600-149 1694Q-216 1788-215 1917Z"  horiz-adv-x="2106" vert-adv-y="2816"  />

      
      <glyph glyph-name="uni1F0C" unicode="&#x1F0C;" d="M531 0L67 0L774 2048L1332 2048L2038 0L1574 0L1061 1580L1045 1580L531 0M502 805L1598 805L1598 467L502 467L502 805M163 1582L163 1614L324 2048L622 2048L622 2020L296 1582L163 1582M122 2048L122 1917Q121 1832 90.50 1761.50Q60 1691 6.50 1637.50Q-47 1584-116 1552L-234 1677Q-168 1722-146.50 1787.50Q-125 1853-124 1925L-124 2048L122 2048Z"  horiz-adv-x="2106" vert-adv-y="2816"  />

      
      <glyph glyph-name="uni1F0D" unicode="&#x1F0D;" d="M531 0L67 0L774 2048L1332 2048L2038 0L1574 0L1061 1580L1045 1580L531 0M502 805L1598 805L1598 467L502 467L502 805M154 1582L154 1614L309 2048L610 2048L610 2020L282 1582L154 1582M-42 1552Q-138 1598-206 1691Q-274 1784-274 1917L-274 2048L-31 2048L-31 1925Q-31 1844-8 1782Q15 1720 76 1677L-42 1552Z"  horiz-adv-x="2106" vert-adv-y="2816"  />

      
      <glyph glyph-name="uni1F0E" unicode="&#x1F0E;" d="M531 0L67 0L774 2048L1332 2048L2038 0L1574 0L1061 1580L1045 1580L531 0M502 805L1598 805L1598 467L502 467L502 805M606 2389L779 2336Q779 2237 714 2162.50Q649 2088 547 2088Q492 2088 450 2102Q408 2116 372.50 2134.50Q337 2153 300 2167Q263 2181 217 2181Q175 2181 149 2145.50Q123 2110 123 2061L-50 2110Q-50 2209 14.50 2286Q79 2363 181 2363Q227 2363 267.50 2349.50Q308 2336 348 2317.50Q388 2299 428 2285Q468 2271 511 2271Q551 2271 578.50 2305.50Q606 2340 606 2389M501 2018L501 1907Q501 1804 442.50 1726Q384 1648 294 1608L182 1710Q242 1745 259 1800.50Q276 1856 276 1913L276 2018L501 2018Z"  horiz-adv-x="2106" vert-adv-y="2816"  />

      
      <glyph glyph-name="uni1F0F" unicode="&#x1F0F;" d="M531 0L67 0L774 2048L1332 2048L2038 0L1574 0L1061 1580L1045 1580L531 0M502 805L1598 805L1598 467L502 467L502 805M236 1907L236 2018L460 2018L460 1913Q460 1856 477.50 1800.50Q495 1745 555 1710L438 1608Q356 1646 296 1723Q236 1800 236 1907M568 2389L741 2336Q741 2237 676 2162.50Q611 2088 509 2088Q454 2088 412 2102Q370 2116 334.50 2134.50Q299 2153 262 2167Q225 2181 179 2181Q137 2181 111 2145.50Q85 2110 85 2061L-88 2110Q-88 2209-23.50 2286Q41 2363 143 2363Q189 2363 229.50 2349.50Q270 2336 310 2317.50Q350 2299 390 2285Q430 2271 473 2271Q513 2271 540.50 2305.50Q568 2340 568 2389Z"  horiz-adv-x="2106" vert-adv-y="2816"  />

      
      <glyph glyph-name="uni1FB8" unicode="&#x1FB8;" d="M531 0L67 0L774 2048L1332 2048L2038 0L1574 0L1061 1580L1045 1580L531 0M502 805L1598 805L1598 467L502 467L502 805M1251 2584L1548 2584Q1547 2402 1413.50 2291Q1280 2180 1053 2180Q825 2180 692 2291Q559 2402 559 2584L854 2584Q853 2515 898.50 2460Q944 2405 1053 2405Q1159 2405 1205 2459Q1251 2513 1251 2584Z"  horiz-adv-x="2106" vert-adv-y="2816"  />

      
      <glyph glyph-name="uni1FB9" unicode="&#x1FB9;" d="M531 0L67 0L774 2048L1332 2048L2038 0L1574 0L1061 1580L1045 1580L531 0M502 805L1598 805L1598 467L502 467L502 805M1540 2560L1540 2329L566 2329L566 2560L1540 2560Z"  horiz-adv-x="2106" vert-adv-y="2816"  />

      
      <glyph glyph-name="uni1FBA" unicode="&#x1FBA;" d="M531 0L67 0L774 2048L1332 2048L2038 0L1574 0L1061 1580L1045 1580L531 0M502 805L1598 805L1598 467L502 467L502 805M461 1580L135 2020L135 2048L433 2048L589 1618L589 1580L461 1580Z"  horiz-adv-x="2106" vert-adv-y="2816"  />

      
      <glyph glyph-name="uni023A" unicode="&#x023A;" d="M1718 2308L888-260L626-260L1457 2308L1718 2308M531 0L67 0L774 2048L1332 2048L2038 0L1574 0L1061 1580L1045 1580L531 0M502 805L1598 805L1598 467L502 467L502 805Z"  horiz-adv-x="2106" vert-adv-y="2816"  />

      
      <glyph glyph-name="uni1FBB" unicode="&#x1FBB;" d="M531 0L67 0L774 2048L1332 2048L2038 0L1574 0L1061 1580L1045 1580L531 0M502 805L1598 805L1598 467L502 467L502 805M189 1728L189 1766L345 2196L726 2196L726 2168L401 1728L189 1728Z"  horiz-adv-x="2106" vert-adv-y="2816"  />

      
      <glyph glyph-name="uni0410" unicode="&#x0410;" d="M531 0L67 0L774 2048L1332 2048L2038 0L1574 0L1061 1580L1045 1580L531 0M502 805L1598 805L1598 467L502 467L502 805Z"  horiz-adv-x="2106" vert-adv-y="2816"  />

      
      <glyph glyph-name="uni04D0" unicode="&#x04D0;" d="M531 0L67 0L774 2048L1332 2048L2038 0L1574 0L1061 1580L1045 1580L531 0M502 805L1598 805L1598 467L502 467L502 805M1251 2584L1548 2584Q1547 2402 1413.50 2291Q1280 2180 1053 2180Q825 2180 692 2291Q559 2402 559 2584L854 2584Q853 2515 898.50 2460Q944 2405 1053 2405Q1159 2405 1205 2459Q1251 2513 1251 2584Z"  horiz-adv-x="2106" vert-adv-y="2816"  />

      
      <glyph glyph-name="uni04D2" unicode="&#x04D2;" d="M531 0L67 0L774 2048L1332 2048L2038 0L1574 0L1061 1580L1045 1580L531 0M502 805L1598 805L1598 467L502 467L502 805M748 2258Q662 2258 600 2318.50Q538 2379 538 2462Q538 2547 600 2606Q662 2665 748 2665Q835 2665 895.50 2606Q956 2547 956 2462Q956 2379 895.50 2318.50Q835 2258 748 2258M1360 2258Q1274 2258 1212 2318.50Q1150 2379 1150 2462Q1150 2547 1212 2606Q1274 2665 1360 2665Q1447 2665 1507.50 2606Q1568 2547 1568 2462Q1568 2379 1507.50 2318.50Q1447 2258 1360 2258Z"  horiz-adv-x="2106" vert-adv-y="2816"  />

      
      <glyph glyph-name="uni1F88" unicode="&#x1F88;" d="M531 0L67 0L774 2048L1332 2048L2038 0L1574 0L1061 1580L1045 1580L531 0M502 805L1598 805L1598 467L502 467L502 805M1190-680Q1082-680 1005.50-619Q929-558 929-422L929-132L1183-132L1183-420Q1183-462 1199.50-482Q1216-502 1258-502Q1279-502 1294.50-500Q1310-498 1321-498L1321-662Q1294-669 1263-674.50Q1232-680 1190-680M552 2048L552 1917Q552 1831 521.50 1760Q491 1689 438.50 1636.50Q386 1584 319 1552L201 1677Q243 1706 267 1743Q291 1780 301 1825.50Q311 1871 311 1925L311 2048L552 2048Z"  horiz-adv-x="2106" vert-adv-y="2816"  />

      
      <glyph glyph-name="uni1F89" unicode="&#x1F89;" d="M531 0L67 0L774 2048L1332 2048L2038 0L1574 0L1061 1580L1045 1580L531 0M502 805L1598 805L1598 467L502 467L502 805M1190-680Q1082-680 1005.50-619Q929-558 929-422L929-132L1183-132L1183-420Q1183-462 1199.50-482Q1216-502 1258-502Q1279-502 1294.50-500Q1310-498 1321-498L1321-662Q1294-669 1263-674.50Q1232-680 1190-680M248 1917L248 2048L491 2048L491 1925Q492 1877 501 1831.50Q510 1786 533 1746.50Q556 1707 599 1677L481 1552Q382 1600 315.50 1694Q249 1788 248 1917Z"  horiz-adv-x="2106" vert-adv-y="2816"  />

      
      <glyph glyph-name="uni1F8A" unicode="&#x1F8A;" d="M531 0L67 0L774 2048L1332 2048L2038 0L1574 0L1061 1580L1045 1580L531 0M502 805L1598 805L1598 467L502 467L502 805M1190-680Q1082-680 1005.50-619Q929-558 929-422L929-132L1183-132L1183-420Q1183-462 1199.50-482Q1216-502 1258-502Q1279-502 1294.50-500Q1310-498 1321-498L1321-662Q1294-669 1263-674.50Q1232-680 1190-680M602 1607L602 1587L469 1587L144 2023L144 2051L441 2051L602 1607M80 2051L80 1939Q80 1859 49 1788Q18 1717-40.50 1658Q-99 1599-182 1555L-292 1639Q-236 1702-206.50 1776Q-177 1850-178 1947L-178 2051L80 2051Z"  horiz-adv-x="2106" vert-adv-y="2816"  />

      
      <glyph glyph-name="uni1F8B" unicode="&#x1F8B;" d="M531 0L67 0L774 2048L1332 2048L2038 0L1574 0L1061 1580L1045 1580L531 0M502 805L1598 805L1598 467L502 467L502 805M1190-680Q1082-680 1005.50-619Q929-558 929-422L929-132L1183-132L1183-420Q1183-462 1199.50-482Q1216-502 1258-502Q1279-502 1294.50-500Q1310-498 1321-498L1321-662Q1294-669 1263-674.50Q1232-680 1190-680M600 1614L600 1582L467 1582L142 2020L142 2048L443 2048L600 1614M-215 1917L-215 2048L30 2048L30 1925Q30 1853 51 1787.50Q72 1722 140 1677L22 1552Q-82 1600-149 1694Q-216 1788-215 1917Z"  horiz-adv-x="2106" vert-adv-y="2816"  />

      
      <glyph glyph-name="uni1F8C" unicode="&#x1F8C;" d="M531 0L67 0L774 2048L1332 2048L2038 0L1574 0L1061 1580L1045 1580L531 0M502 805L1598 805L1598 467L502 467L502 805M163 1582L163 1614L324 2048L622 2048L622 2020L296 1582L163 1582M122 2048L122 1917Q121 1832 90.50 1761.50Q60 1691 6.50 1637.50Q-47 1584-116 1552L-234 1677Q-168 1722-146.50 1787.50Q-125 1853-124 1925L-124 2048L122 2048M1190-680Q1082-680 1005.50-619Q929-558 929-422L929-132L1183-132L1183-420Q1183-462 1199.50-482Q1216-502 1258-502Q1279-502 1294.50-500Q1310-498 1321-498L1321-662Q1294-669 1263-674.50Q1232-680 1190-680Z"  horiz-adv-x="2106" vert-adv-y="2816"  />

      
      <glyph glyph-name="uni1F8D" unicode="&#x1F8D;" d="M531 0L67 0L774 2048L1332 2048L2038 0L1574 0L1061 1580L1045 1580L531 0M502 805L1598 805L1598 467L502 467L502 805M1190-680Q1082-680 1005.50-619Q929-558 929-422L929-132L1183-132L1183-420Q1183-462 1199.50-482Q1216-502 1258-502Q1279-502 1294.50-500Q1310-498 1321-498L1321-662Q1294-669 1263-674.50Q1232-680 1190-680M154 1582L154 1614L309 2048L610 2048L610 2020L282 1582L154 1582M-42 1552Q-138 1598-206 1691Q-274 1784-274 1917L-274 2048L-31 2048L-31 1925Q-31 1844-8 1782Q15 1720 76 1677L-42 1552Z"  horiz-adv-x="2106" vert-adv-y="2816"  />

      
      <glyph glyph-name="uni1F8E" unicode="&#x1F8E;" d="M531 0L67 0L774 2048L1332 2048L2038 0L1574 0L1061 1580L1045 1580L531 0M502 805L1598 805L1598 467L502 467L502 805M606 2389L779 2336Q779 2237 714 2162.50Q649 2088 547 2088Q492 2088 450 2102Q408 2116 372.50 2134.50Q337 2153 300 2167Q263 2181 217 2181Q175 2181 149 2145.50Q123 2110 123 2061L-50 2110Q-50 2209 14.50 2286Q79 2363 181 2363Q227 2363 267.50 2349.50Q308 2336 348 2317.50Q388 2299 428 2285Q468 2271 511 2271Q551 2271 578.50 2305.50Q606 2340 606 2389M501 2018L501 1907Q501 1804 442.50 1726Q384 1648 294 1608L182 1710Q242 1745 259 1800.50Q276 1856 276 1913L276 2018L501 2018M1190-680Q1082-680 1005.50-619Q929-558 929-422L929-132L1183-132L1183-420Q1183-462 1199.50-482Q1216-502 1258-502Q1279-502 1294.50-500Q1310-498 1321-498L1321-662Q1294-669 1263-674.50Q1232-680 1190-680Z"  horiz-adv-x="2106" vert-adv-y="2816"  />

      
      <glyph glyph-name="uni1F8F" unicode="&#x1F8F;" d="M531 0L67 0L774 2048L1332 2048L2038 0L1574 0L1061 1580L1045 1580L531 0M502 805L1598 805L1598 467L502 467L502 805M1190-680Q1082-680 1005.50-619Q929-558 929-422L929-132L1183-132L1183-420Q1183-462 1199.50-482Q1216-502 1258-502Q1279-502 1294.50-500Q1310-498 1321-498L1321-662Q1294-669 1263-674.50Q1232-680 1190-680M236 1907L236 2018L460 2018L460 1913Q460 1856 477.50 1800.50Q495 1745 555 1710L438 1608Q356 1646 296 1723Q236 1800 236 1907M568 2389L741 2336Q741 2237 676 2162.50Q611 2088 509 2088Q454 2088 412 2102Q370 2116 334.50 2134.50Q299 2153 262 2167Q225 2181 179 2181Q137 2181 111 2145.50Q85 2110 85 2061L-88 2110Q-88 2209-23.50 2286Q41 2363 143 2363Q189 2363 229.50 2349.50Q270 2336 310 2317.50Q350 2299 390 2285Q430 2271 473 2271Q513 2271 540.50 2305.50Q568 2340 568 2389Z"  horiz-adv-x="2106" vert-adv-y="2816"  />

      
      <glyph glyph-name="uni1FBC" unicode="&#x1FBC;" d="M531 0L67 0L774 2048L1332 2048L2038 0L1574 0L1061 1580L1045 1580L531 0M502 805L1598 805L1598 467L502 467L502 805M1190-680Q1082-680 1005.50-619Q929-558 929-422L929-132L1183-132L1183-420Q1183-462 1199.50-482Q1216-502 1258-502Q1279-502 1294.50-500Q1310-498 1321-498L1321-662Q1294-669 1263-674.50Q1232-680 1190-680Z"  horiz-adv-x="2106" vert-adv-y="2816"  />

      
      <glyph glyph-name="uni039B" unicode="&#x039B;" d="M531 0L67 0L774 2048L1332 2048L2038 0L1574 0L1061 1580L1045 1580L531 0Z"  horiz-adv-x="2106" vert-adv-y="2816"  />

      
      <glyph glyph-name="unic6" unicode="&#xc6;" d="M67 0L944 2048L2734 2048L2734 1691L1787 1691L1787 1203L2663 1203L2663 846L1787 846L1787 357L2738 357L2738 0L1354 0L1354 1622L1211 1622L543 0L67 0M537 467L537 805L1601 805L1601 467L537 467Z"  horiz-adv-x="2901" vert-adv-y="2816"  />

      
      <glyph glyph-name="uni01E2" unicode="&#x01E2;" d="M67 0L944 2048L2734 2048L2734 1691L1787 1691L1787 1203L2663 1203L2663 846L1787 846L1787 357L2738 357L2738 0L1354 0L1354 1622L1211 1622L543 0L67 0M537 467L537 805L1601 805L1601 467L537 467M2331 2560L2331 2329L1357 2329L1357 2560L2331 2560Z"  horiz-adv-x="2901" vert-adv-y="2816"  />

      
      <glyph glyph-name="uni01FC" unicode="&#x01FC;" d="M67 0L944 2048L2734 2048L2734 1691L1787 1691L1787 1203L2663 1203L2663 846L1787 846L1787 357L2738 357L2738 0L1354 0L1354 1622L1211 1622L543 0L67 0M537 467L537 805L1601 805L1601 467L537 467M1691 2246L1903 2701L2297 2701L1992 2246L1691 2246Z"  horiz-adv-x="2901" vert-adv-y="2816"  />

      
      <glyph glyph-name="uni04D4" unicode="&#x04D4;" d="M67 0L944 2048L2734 2048L2734 1691L1787 1691L1787 1203L2663 1203L2663 846L1787 846L1787 357L2738 357L2738 0L1354 0L1354 1622L1211 1622L543 0L67 0M537 467L537 805L1601 805L1601 467L537 467Z"  horiz-adv-x="2901" vert-adv-y="2816"  />

      
      <glyph glyph-name="uni42" unicode="&#x42;" d="M178 0L178 2048L998 2048Q1224 2048 1375 1981Q1526 1914 1602 1795.50Q1678 1677 1678 1523Q1678 1403 1630 1312.50Q1582 1222 1498.50 1164.50Q1415 1107 1308 1083L1308 1063Q1425 1058 1527.50 997Q1630 936 1694 826.50Q1758 717 1758 566Q1758 403 1677.50 275.50Q1597 148 1440 74Q1283 0 1053 0L178 0M611 354L964 354Q1145 354 1228 423.50Q1311 493 1311 609Q1311 694 1270 759Q1229 824 1153.50 861Q1078 898 974 898L611 898L611 354M611 1191L932 1191Q1021 1191 1090.50 1222.50Q1160 1254 1200.50 1312Q1241 1370 1241 1451Q1241 1562 1162.50 1630Q1084 1698 940 1698L611 1698L611 1191Z"  horiz-adv-x="1861" vert-adv-y="2816"  />

      
      <glyph glyph-name="uni1E02" unicode="&#x1E02;" d="M178 0L178 2048L998 2048Q1224 2048 1375 1981Q1526 1914 1602 1795.50Q1678 1677 1678 1523Q1678 1403 1630 1312.50Q1582 1222 1498.50 1164.50Q1415 1107 1308 1083L1308 1063Q1425 1058 1527.50 997Q1630 936 1694 826.50Q1758 717 1758 566Q1758 403 1677.50 275.50Q1597 148 1440 74Q1283 0 1053 0L178 0M611 354L964 354Q1145 354 1228 423.50Q1311 493 1311 609Q1311 694 1270 759Q1229 824 1153.50 861Q1078 898 974 898L611 898L611 354M611 1191L932 1191Q1021 1191 1090.50 1222.50Q1160 1254 1200.50 1312Q1241 1370 1241 1451Q1241 1562 1162.50 1630Q1084 1698 940 1698L611 1698L611 1191M901 2246Q806 2246 738 2309.50Q670 2373 670 2462Q670 2550 738 2613.50Q806 2677 900 2677Q996 2677 1063.50 2613.50Q1131 2550 1131 2462Q1131 2373 1063.50 2309.50Q996 2246 901 2246Z"  horiz-adv-x="1861" vert-adv-y="2816"  />

      
      <glyph glyph-name="uni1E04" unicode="&#x1E04;" d="M178 0L178 2048L998 2048Q1224 2048 1375 1981Q1526 1914 1602 1795.50Q1678 1677 1678 1523Q1678 1403 1630 1312.50Q1582 1222 1498.50 1164.50Q1415 1107 1308 1083L1308 1063Q1425 1058 1527.50 997Q1630 936 1694 826.50Q1758 717 1758 566Q1758 403 1677.50 275.50Q1597 148 1440 74Q1283 0 1053 0L178 0M611 354L964 354Q1145 354 1228 423.50Q1311 493 1311 609Q1311 694 1270 759Q1229 824 1153.50 861Q1078 898 974 898L611 898L611 354M611 1191L932 1191Q1021 1191 1090.50 1222.50Q1160 1254 1200.50 1312Q1241 1370 1241 1451Q1241 1562 1162.50 1630Q1084 1698 940 1698L611 1698L611 1191M903-575Q808-575 740-512Q672-449 672-360Q672-271 740-208Q808-145 903-145Q998-145 1065.50-208Q1133-271 1133-360Q1133-449 1065.50-512Q998-575 903-575Z"  horiz-adv-x="1861" vert-adv-y="2816"  />

      
      <glyph glyph-name="uni1E06" unicode="&#x1E06;" d="M178 0L178 2048L998 2048Q1224 2048 1375 1981Q1526 1914 1602 1795.50Q1678 1677 1678 1523Q1678 1403 1630 1312.50Q1582 1222 1498.50 1164.50Q1415 1107 1308 1083L1308 1063Q1425 1058 1527.50 997Q1630 936 1694 826.50Q1758 717 1758 566Q1758 403 1677.50 275.50Q1597 148 1440 74Q1283 0 1053 0L178 0M611 354L964 354Q1145 354 1228 423.50Q1311 493 1311 609Q1311 694 1270 759Q1229 824 1153.50 861Q1078 898 974 898L611 898L611 354M611 1191L932 1191Q1021 1191 1090.50 1222.50Q1160 1254 1200.50 1312Q1241 1370 1241 1451Q1241 1562 1162.50 1630Q1084 1698 940 1698L611 1698L611 1191M1390-256L1390-487L416-487L416-256L1390-256Z"  horiz-adv-x="1861" vert-adv-y="2816"  />

      
      <glyph glyph-name="uni0243" unicode="&#x0243;" d="M356 0L356 2048L1176 2048Q1402 2048 1553 1981Q1704 1914 1780 1795.50Q1856 1677 1856 1523Q1856 1403 1808 1312.50Q1760 1222 1676.50 1164.50Q1593 1107 1486 1083L1486 1063Q1603 1058 1705.50 997Q1808 936 1872 826.50Q1936 717 1936 566Q1936 403 1855.50 275.50Q1775 148 1618 74Q1461 0 1231 0L356 0M789 354L1142 354Q1323 354 1406 423.50Q1489 493 1489 609Q1489 694 1448 759Q1407 824 1331.50 861Q1256 898 1152 898L789 898L789 354M789 1191L1110 1191Q1199 1191 1268.50 1222.50Q1338 1254 1378.50 1312Q1419 1370 1419 1451Q1419 1562 1340.50 1630Q1262 1698 1118 1698L789 1698L789 1191M61 501L61 752L1059 752L1059 501L61 501Z"  horiz-adv-x="2038" vert-adv-y="2816"  />

      
      <glyph glyph-name="uni0181" unicode="&#x0181;" d="M984 1694L687 1694Q604 1694 560 1655.50Q516 1617 500.50 1558.50Q485 1500 486 1438L486 1319L100 1319L100 1520Q99 1681 170 1799.50Q241 1918 372.50 1983Q504 2048 686 2048L984 2048L984 1694M758 0L758 2048L1577 2048Q1803 2048 1954 1981Q2105 1914 2181.50 1795.50Q2258 1677 2258 1523Q2258 1403 2209.50 1312.50Q2161 1222 2077.50 1164.50Q1994 1107 1887 1083L1887 1063Q2004 1058 2107 997Q2210 936 2274 826.50Q2338 717 2338 566Q2338 403 2257.50 275.50Q2177 148 2020 74Q1863 0 1632 0L758 0M1190 354L1543 354Q1724 354 1807 423.50Q1890 493 1890 609Q1890 694 1849 759Q1808 824 1732.50 861Q1657 898 1553 898L1190 898L1190 354M1190 1191L1511 1191Q1600 1191 1669.50 1222.50Q1739 1254 1779.50 1312Q1820 1370 1820 1451Q1820 1562 1741.50 1630Q1663 1698 1519 1698L1190 1698L1190 1191Z"  horiz-adv-x="2440" vert-adv-y="2816"  />

      
      <glyph glyph-name="uni0412" unicode="&#x0412;" d="M178 0L178 2048L998 2048Q1224 2048 1375 1981Q1526 1914 1602 1795.50Q1678 1677 1678 1523Q1678 1403 1630 1312.50Q1582 1222 1498.50 1164.50Q1415 1107 1308 1083L1308 1063Q1425 1058 1527.50 997Q1630 936 1694 826.50Q1758 717 1758 566Q1758 403 1677.50 275.50Q1597 148 1440 74Q1283 0 1053 0L178 0M611 354L964 354Q1145 354 1228 423.50Q1311 493 1311 609Q1311 694 1270 759Q1229 824 1153.50 861Q1078 898 974 898L611 898L611 354M611 1191L932 1191Q1021 1191 1090.50 1222.50Q1160 1254 1200.50 1312Q1241 1370 1241 1451Q1241 1562 1162.50 1630Q1084 1698 940 1698L611 1698L611 1191Z"  horiz-adv-x="1861" vert-adv-y="2816"  />

      
      <glyph glyph-name="uni0392" unicode="&#x0392;" d="M178 0L178 2048L998 2048Q1224 2048 1375 1981Q1526 1914 1602 1795.50Q1678 1677 1678 1523Q1678 1403 1630 1312.50Q1582 1222 1498.50 1164.50Q1415 1107 1308 1083L1308 1063Q1425 1058 1527.50 997Q1630 936 1694 826.50Q1758 717 1758 566Q1758 403 1677.50 275.50Q1597 148 1440 74Q1283 0 1053 0L178 0M611 354L964 354Q1145 354 1228 423.50Q1311 493 1311 609Q1311 694 1270 759Q1229 824 1153.50 861Q1078 898 974 898L611 898L611 354M611 1191L932 1191Q1021 1191 1090.50 1222.50Q1160 1254 1200.50 1312Q1241 1370 1241 1451Q1241 1562 1162.50 1630Q1084 1698 940 1698L611 1698L611 1191Z"  horiz-adv-x="1861" vert-adv-y="2816"  />

      
      <glyph glyph-name="uni43" unicode="&#x43;" d="M1985 1331L1547 1331Q1535 1416 1498 1482.50Q1461 1549 1403 1596Q1345 1643 1269.50 1668Q1194 1693 1106 1693Q947 1693 829 1614.50Q711 1536 646 1386.50Q581 1237 581 1024Q581 805 646.50 656Q712 507 830 431Q948 355 1103 355Q1190 355 1264.50 378Q1339 401 1397 445.50Q1455 490 1493.50 554Q1532 618 1547 700L1985 698Q1968 557 1900.50 426.50Q1833 296 1719.50 193.50Q1606 91 1449.50 31.50Q1293-28 1096-28Q822-28 606.50 96Q391 220 266.50 455Q142 690 142 1024Q142 1359 268 1594Q394 1829 610 1952.50Q826 2076 1096 2076Q1274 2076 1426.50 2026Q1579 1976 1697 1880.50Q1815 1785 1889.50 1647Q1964 1509 1985 1331Z"  horiz-adv-x="2118" vert-adv-y="2816"  />

      
      <glyph glyph-name="uni0187" unicode="&#x0187;" d="M1985 1331L1569 1331L1569 1558Q1569 1737 1653.50 1860Q1738 1983 1877 2046.50Q2016 2110 2180 2110Q2232 2110 2280.50 2108.50Q2329 2107 2383 2098L2383 1754Q2359 1755 2322.50 1757Q2286 1759 2262 1759Q2198 1759 2134 1735.50Q2070 1712 2027.50 1656Q1985 1600 1985 1503L1985 1331M1985 1331L1547 1331Q1535 1416 1498 1482.50Q1461 1549 1403 1596Q1345 1643 1269.50 1668Q1194 1693 1106 1693Q947 1693 829 1614.50Q711 1536 646 1386.50Q581 1237 581 1024Q581 805 646.50 656Q712 507 830 431Q948 355 1103 355Q1190 355 1264.50 378Q1339 401 1397 445.50Q1455 490 1493.50 554Q1532 618 1547 700L1985 698Q1968 557 1900.50 426.50Q1833 296 1719.50 193.50Q1606 91 1449.50 31.50Q1293-28 1096-28Q822-28 606.50 96Q391 220 266.50 455Q142 690 142 1024Q142 1359 268 1594Q394 1829 610 1952.50Q826 2076 1096 2076Q1274 2076 1426.50 2026Q1579 1976 1697 1880.50Q1815 1785 1889.50 1647Q1964 1509 1985 1331Z"  horiz-adv-x="2359" vert-adv-y="2816"  />

      
      <glyph glyph-name="unic7" unicode="&#xc7;" d="M1985 1331L1547 1331Q1535 1416 1498 1482.50Q1461 1549 1403 1596Q1345 1643 1269.50 1668Q1194 1693 1106 1693Q947 1693 829 1614.50Q711 1536 646 1386.50Q581 1237 581 1024Q581 805 646.50 656Q712 507 830 431Q948 355 1103 355Q1190 355 1264.50 378Q1339 401 1397 445.50Q1455 490 1493.50 554Q1532 618 1547 700L1985 698Q1968 557 1900.50 426.50Q1833 296 1719.50 193.50Q1606 91 1449.50 31.50Q1293-28 1096-28Q822-28 606.50 96Q391 220 266.50 455Q142 690 142 1024Q142 1359 268 1594Q394 1829 610 1952.50Q826 2076 1096 2076Q1274 2076 1426.50 2026Q1579 1976 1697 1880.50Q1815 1785 1889.50 1647Q1964 1509 1985 1331M989 6L1185 6L1169-81Q1272-97 1337.50-158Q1403-219 1404-324Q1405-473 1266-561.50Q1127-650 876-650L872-460Q998-460 1069.50-429.50Q1141-399 1144-335Q1146-274 1097-242Q1048-210 944-197L989 6Z"  horiz-adv-x="2118" vert-adv-y="2816"  />

      
      <glyph glyph-name="uni0106" unicode="&#x0106;" d="M1985 1331L1547 1331Q1535 1416 1498 1482.50Q1461 1549 1403 1596Q1345 1643 1269.50 1668Q1194 1693 1106 1693Q947 1693 829 1614.50Q711 1536 646 1386.50Q581 1237 581 1024Q581 805 646.50 656Q712 507 830 431Q948 355 1103 355Q1190 355 1264.50 378Q1339 401 1397 445.50Q1455 490 1493.50 554Q1532 618 1547 700L1985 698Q1968 557 1900.50 426.50Q1833 296 1719.50 193.50Q1606 91 1449.50 31.50Q1293-28 1096-28Q822-28 606.50 96Q391 220 266.50 455Q142 690 142 1024Q142 1359 268 1594Q394 1829 610 1952.50Q826 2076 1096 2076Q1274 2076 1426.50 2026Q1579 1976 1697 1880.50Q1815 1785 1889.50 1647Q1964 1509 1985 1331M943 2246L1155 2701L1549 2701L1244 2246L943 2246Z"  horiz-adv-x="2118" vert-adv-y="2816"  />

      
      <glyph glyph-name="uni0108" unicode="&#x0108;" d="M1985 1331L1547 1331Q1535 1416 1498 1482.50Q1461 1549 1403 1596Q1345 1643 1269.50 1668Q1194 1693 1106 1693Q947 1693 829 1614.50Q711 1536 646 1386.50Q581 1237 581 1024Q581 805 646.50 656Q712 507 830 431Q948 355 1103 355Q1190 355 1264.50 378Q1339 401 1397 445.50Q1455 490 1493.50 554Q1532 618 1547 700L1985 698Q1968 557 1900.50 426.50Q1833 296 1719.50 193.50Q1606 91 1449.50 31.50Q1293-28 1096-28Q822-28 606.50 96Q391 220 266.50 455Q142 690 142 1024Q142 1359 268 1594Q394 1829 610 1952.50Q826 2076 1096 2076Q1274 2076 1426.50 2026Q1579 1976 1697 1880.50Q1815 1785 1889.50 1647Q1964 1509 1985 1331M1297 2232L1096 2476L895 2232L532 2232L532 2246L937 2686L1254 2686L1660 2246L1660 2232L1297 2232Z"  horiz-adv-x="2118" vert-adv-y="2816"  />

      
      <glyph glyph-name="uni010A" unicode="&#x010A;" d="M1985 1331L1547 1331Q1535 1416 1498 1482.50Q1461 1549 1403 1596Q1345 1643 1269.50 1668Q1194 1693 1106 1693Q947 1693 829 1614.50Q711 1536 646 1386.50Q581 1237 581 1024Q581 805 646.50 656Q712 507 830 431Q948 355 1103 355Q1190 355 1264.50 378Q1339 401 1397 445.50Q1455 490 1493.50 554Q1532 618 1547 700L1985 698Q1968 557 1900.50 426.50Q1833 296 1719.50 193.50Q1606 91 1449.50 31.50Q1293-28 1096-28Q822-28 606.50 96Q391 220 266.50 455Q142 690 142 1024Q142 1359 268 1594Q394 1829 610 1952.50Q826 2076 1096 2076Q1274 2076 1426.50 2026Q1579 1976 1697 1880.50Q1815 1785 1889.50 1647Q1964 1509 1985 1331M1097 2246Q1002 2246 934 2309.50Q866 2373 866 2462Q866 2550 934 2613.50Q1002 2677 1096 2677Q1192 2677 1259.50 2613.50Q1327 2550 1327 2462Q1327 2373 1259.50 2309.50Q1192 2246 1097 2246Z"  horiz-adv-x="2118" vert-adv-y="2816"  />

      
      <glyph glyph-name="uni010C" unicode="&#x010C;" d="M1985 1331L1547 1331Q1535 1416 1498 1482.50Q1461 1549 1403 1596Q1345 1643 1269.50 1668Q1194 1693 1106 1693Q947 1693 829 1614.50Q711 1536 646 1386.50Q581 1237 581 1024Q581 805 646.50 656Q712 507 830 431Q948 355 1103 355Q1190 355 1264.50 378Q1339 401 1397 445.50Q1455 490 1493.50 554Q1532 618 1547 700L1985 698Q1968 557 1900.50 426.50Q1833 296 1719.50 193.50Q1606 91 1449.50 31.50Q1293-28 1096-28Q822-28 606.50 96Q391 220 266.50 455Q142 690 142 1024Q142 1359 268 1594Q394 1829 610 1952.50Q826 2076 1096 2076Q1274 2076 1426.50 2026Q1579 1976 1697 1880.50Q1815 1785 1889.50 1647Q1964 1509 1985 1331M895 2686L1096 2442L1297 2686L1660 2686L1660 2672L1254 2232L937 2232L532 2672L532 2686L895 2686Z"  horiz-adv-x="2118" vert-adv-y="2816"  />

      
      <glyph glyph-name="uni1E08" unicode="&#x1E08;" d="M1985 1331L1547 1331Q1535 1416 1498 1482.50Q1461 1549 1403 1596Q1345 1643 1269.50 1668Q1194 1693 1106 1693Q947 1693 829 1614.50Q711 1536 646 1386.50Q581 1237 581 1024Q581 805 646.50 656Q712 507 830 431Q948 355 1103 355Q1190 355 1264.50 378Q1339 401 1397 445.50Q1455 490 1493.50 554Q1532 618 1547 700L1985 698Q1968 557 1900.50 426.50Q1833 296 1719.50 193.50Q1606 91 1449.50 31.50Q1293-28 1096-28Q822-28 606.50 96Q391 220 266.50 455Q142 690 142 1024Q142 1359 268 1594Q394 1829 610 1952.50Q826 2076 1096 2076Q1274 2076 1426.50 2026Q1579 1976 1697 1880.50Q1815 1785 1889.50 1647Q1964 1509 1985 1331M989 6L1185 6L1169-81Q1272-97 1337.50-158Q1403-219 1404-324Q1405-473 1266-561.50Q1127-650 876-650L872-460Q998-460 1069.50-429.50Q1141-399 1144-335Q1146-274 1097-242Q1048-210 944-197L989 6M943 2246L1155 2701L1549 2701L1244 2246L943 2246Z"  horiz-adv-x="2118" vert-adv-y="2816"  />

      
      <glyph glyph-name="uni023B" unicode="&#x023B;" d="M519-260L1350 2308L1611 2308L781-260L519-260M1985 1331L1547 1331Q1535 1416 1498 1482.50Q1461 1549 1403 1596Q1345 1643 1269.50 1668Q1194 1693 1106 1693Q947 1693 829 1614.50Q711 1536 646 1386.50Q581 1237 581 1024Q581 805 646.50 656Q712 507 830 431Q948 355 1103 355Q1190 355 1264.50 378Q1339 401 1397 445.50Q1455 490 1493.50 554Q1532 618 1547 700L1985 698Q1968 557 1900.50 426.50Q1833 296 1719.50 193.50Q1606 91 1449.50 31.50Q1293-28 1096-28Q822-28 606.50 96Q391 220 266.50 455Q142 690 142 1024Q142 1359 268 1594Q394 1829 610 1952.50Q826 2076 1096 2076Q1274 2076 1426.50 2026Q1579 1976 1697 1880.50Q1815 1785 1889.50 1647Q1964 1509 1985 1331Z"  horiz-adv-x="2118" vert-adv-y="2816"  />

      
      <glyph glyph-name="uni0186" unicode="&#x0186;" d="M133 717L570 717Q583 632 620 565.50Q657 499 714.50 452Q772 405 847.50 380Q923 355 1012 355Q1170 355 1288.50 433.50Q1407 512 1472 661.50Q1537 811 1537 1024Q1537 1243 1471 1392Q1405 1541 1287.50 1617Q1170 1693 1014 1693Q928 1693 853.50 1670Q779 1647 721 1602.50Q663 1558 624.50 1494Q586 1430 570 1348L133 1350Q151 1492 218 1622Q285 1752 398 1854.50Q511 1957 668 2016.50Q825 2076 1022 2076Q1296 2076 1511.50 1952Q1727 1828 1851.50 1593Q1976 1358 1976 1024Q1976 689 1850 454Q1724 219 1508 95.50Q1292-28 1022-28Q844-28 691 22Q538 72 420.50 167.50Q303 263 229 401.50Q155 540 133 717Z"  horiz-adv-x="2118" vert-adv-y="2816"  />

      
      <glyph glyph-name="uni03F9" unicode="&#x03F9;" d="M1985 1331L1547 1331Q1535 1416 1498 1482.50Q1461 1549 1403 1596Q1345 1643 1269.50 1668Q1194 1693 1106 1693Q947 1693 829 1614.50Q711 1536 646 1386.50Q581 1237 581 1024Q581 805 646.50 656Q712 507 830 431Q948 355 1103 355Q1190 355 1264.50 378Q1339 401 1397 445.50Q1455 490 1493.50 554Q1532 618 1547 700L1985 698Q1968 557 1900.50 426.50Q1833 296 1719.50 193.50Q1606 91 1449.50 31.50Q1293-28 1096-28Q822-28 606.50 96Q391 220 266.50 455Q142 690 142 1024Q142 1359 268 1594Q394 1829 610 1952.50Q826 2076 1096 2076Q1274 2076 1426.50 2026Q1579 1976 1697 1880.50Q1815 1785 1889.50 1647Q1964 1509 1985 1331Z"  horiz-adv-x="2118" vert-adv-y="2816"  />

      
      <glyph glyph-name="uni44" unicode="&#x44;" d="M904 0L178 0L178 2048L910 2048Q1219 2048 1442 1925.50Q1665 1803 1785.50 1574Q1906 1345 1906 1026Q1906 706 1785.50 476Q1665 246 1440.50 123Q1216 0 904 0M611 371L886 371Q1078 371 1209.50 439.50Q1341 508 1407.50 652.50Q1474 797 1474 1026Q1474 1253 1407.50 1397Q1341 1541 1210 1609Q1079 1677 887 1677L611 1677L611 371Z"  horiz-adv-x="2048" vert-adv-y="2816"  />

      
      <glyph glyph-name="uni018A" unicode="&#x018A;" d="M100 1319L100 1520Q99 1681 170 1799.50Q241 1918 372.50 1983Q504 2048 686 2048L984 2048L984 1677L687 1677Q604 1677 560 1643Q516 1609 500.50 1554.50Q485 1500 486 1438L486 1319L100 1319M1492 0L766 0L766 2048L1498 2048Q1807 2048 2030 1925.50Q2253 1803 2373.50 1574Q2494 1345 2494 1026Q2494 706 2373.50 476Q2253 246 2028.50 123Q1804 0 1492 0M1199 371L1474 371Q1666 371 1797.50 439.50Q1929 508 1995.50 652.50Q2062 797 2062 1026Q2062 1253 1995.50 1397Q1929 1541 1798 1609Q1667 1677 1475 1677L1199 1677L1199 371Z"  horiz-adv-x="2636" vert-adv-y="2816"  />

      
      <glyph glyph-name="uni010E" unicode="&#x010E;" d="M904 0L178 0L178 2048L910 2048Q1219 2048 1442 1925.50Q1665 1803 1785.50 1574Q1906 1345 1906 1026Q1906 706 1785.50 476Q1665 246 1440.50 123Q1216 0 904 0M611 371L886 371Q1078 371 1209.50 439.50Q1341 508 1407.50 652.50Q1474 797 1474 1026Q1474 1253 1407.50 1397Q1341 1541 1210 1609Q1079 1677 887 1677L611 1677L611 371M628 2686L829 2442L1030 2686L1393 2686L1393 2672L987 2232L670 2232L265 2672L265 2686L628 2686Z"  horiz-adv-x="2048" vert-adv-y="2816"  />

      
      <glyph glyph-name="uni1E0A" unicode="&#x1E0A;" d="M904 0L178 0L178 2048L910 2048Q1219 2048 1442 1925.50Q1665 1803 1785.50 1574Q1906 1345 1906 1026Q1906 706 1785.50 476Q1665 246 1440.50 123Q1216 0 904 0M611 371L886 371Q1078 371 1209.50 439.50Q1341 508 1407.50 652.50Q1474 797 1474 1026Q1474 1253 1407.50 1397Q1341 1541 1210 1609Q1079 1677 887 1677L611 1677L611 371M829 2246Q734 2246 666 2309.50Q598 2373 598 2462Q598 2550 666 2613.50Q734 2677 828 2677Q924 2677 991.50 2613.50Q1059 2550 1059 2462Q1059 2373 991.50 2309.50Q924 2246 829 2246Z"  horiz-adv-x="2048" vert-adv-y="2816"  />

      
      <glyph glyph-name="uni1E0C" unicode="&#x1E0C;" d="M904 0L178 0L178 2048L910 2048Q1219 2048 1442 1925.50Q1665 1803 1785.50 1574Q1906 1345 1906 1026Q1906 706 1785.50 476Q1665 246 1440.50 123Q1216 0 904 0M611 371L886 371Q1078 371 1209.50 439.50Q1341 508 1407.50 652.50Q1474 797 1474 1026Q1474 1253 1407.50 1397Q1341 1541 1210 1609Q1079 1677 887 1677L611 1677L611 371M900-575Q805-575 737-512Q669-449 669-360Q669-271 737-208Q805-145 900-145Q995-145 1062.50-208Q1130-271 1130-360Q1130-449 1062.50-512Q995-575 900-575Z"  horiz-adv-x="2048" vert-adv-y="2816"  />

      
      <glyph glyph-name="uni1E0E" unicode="&#x1E0E;" d="M904 0L178 0L178 2048L910 2048Q1219 2048 1442 1925.50Q1665 1803 1785.50 1574Q1906 1345 1906 1026Q1906 706 1785.50 476Q1665 246 1440.50 123Q1216 0 904 0M611 371L886 371Q1078 371 1209.50 439.50Q1341 508 1407.50 652.50Q1474 797 1474 1026Q1474 1253 1407.50 1397Q1341 1541 1210 1609Q1079 1677 887 1677L611 1677L611 371M1386-256L1386-487L412-487L412-256L1386-256Z"  horiz-adv-x="2048" vert-adv-y="2816"  />

      
      <glyph glyph-name="uni1E10" unicode="&#x1E10;" d="M904 0L178 0L178 2048L910 2048Q1219 2048 1442 1925.50Q1665 1803 1785.50 1574Q1906 1345 1906 1026Q1906 706 1785.50 476Q1665 246 1440.50 123Q1216 0 904 0M611 371L886 371Q1078 371 1209.50 439.50Q1341 508 1407.50 652.50Q1474 797 1474 1026Q1474 1253 1407.50 1397Q1341 1541 1210 1609Q1079 1677 887 1677L611 1677L611 371M581-656L705-162L1099-162L880-656L581-656Z"  horiz-adv-x="2048" vert-adv-y="2816"  />

      
      <glyph glyph-name="uni1E12" unicode="&#x1E12;" d="M904 0L178 0L178 2048L910 2048Q1219 2048 1442 1925.50Q1665 1803 1785.50 1574Q1906 1345 1906 1026Q1906 706 1785.50 476Q1665 246 1440.50 123Q1216 0 904 0M611 371L886 371Q1078 371 1209.50 439.50Q1341 508 1407.50 652.50Q1474 797 1474 1026Q1474 1253 1407.50 1397Q1341 1541 1210 1609Q1079 1677 887 1677L611 1677L611 371M1100-582L899-338L698-582L335-582L335-568L741-128L1058-128L1463-568L1463-582L1100-582Z"  horiz-adv-x="2048" vert-adv-y="2816"  />

      
      <glyph glyph-name="uni0189" unicode="&#x0189;" d="M904 0L371 0L371 371L886 371Q1078 371 1209.50 439.50Q1341 508 1407.50 652.50Q1474 797 1474 1026Q1474 1253 1407.50 1397Q1341 1541 1210 1609Q1079 1677 887 1677L362 1677L362 2048L910 2048Q1219 2048 1442 1925.50Q1665 1803 1785.50 1574Q1906 1345 1906 1026Q1906 706 1785.50 476Q1665 246 1440.50 123Q1216 0 904 0M611 2048L611 0L178 0L178 2048L611 2048M-106 954L-106 1206L891 1206L891 954L-106 954Z"  horiz-adv-x="2048" vert-adv-y="2816"  />

      
      <glyph glyph-name="uni01F2" unicode="&#x01F2;" d="M904 0L178 0L178 2048L910 2048Q1219 2048 1442 1925.50Q1665 1803 1785.50 1574Q1906 1345 1906 1026Q1906 706 1785.50 476Q1665 246 1440.50 123Q1216 0 904 0M611 371L886 371Q1078 371 1209.50 439.50Q1341 508 1407.50 652.50Q1474 797 1474 1026Q1474 1253 1407.50 1397Q1341 1541 1210 1609Q1079 1677 887 1677L611 1677L611 371M2210 0L2210 254L2962 1185L2962 1196L2236 1196L2236 1536L3475 1536L3475 1259L2769 351L2769 340L3501 340L3501 0L2210 0Z"  horiz-adv-x="3658" vert-adv-y="2816"  />

      
      <glyph glyph-name="uni01C5" unicode="&#x01C5;" d="M904 0L178 0L178 2048L910 2048Q1219 2048 1442 1925.50Q1665 1803 1785.50 1574Q1906 1345 1906 1026Q1906 706 1785.50 476Q1665 246 1440.50 123Q1216 0 904 0M611 371L886 371Q1078 371 1209.50 439.50Q1341 508 1407.50 652.50Q1474 797 1474 1026Q1474 1253 1407.50 1397Q1341 1541 1210 1609Q1079 1677 887 1677L611 1677L611 371M2210 0L2210 254L2962 1185L2962 1196L2236 1196L2236 1536L3475 1536L3475 1259L2769 351L2769 340L3501 340L3501 0L2210 0M2650 2174L2851 1930L3052 2174L3415 2174L3415 2160L3010 1720L2693 1720L2287 2160L2287 2174L2650 2174Z"  horiz-adv-x="3658" vert-adv-y="2816"  />

      
      <glyph glyph-name="uni45" unicode="&#x45;" d="M178 0L178 2048L1558 2048L1558 1691L611 1691L611 1203L1487 1203L1487 846L611 846L611 357L1562 357L1562 0L178 0Z"  horiz-adv-x="1725" vert-adv-y="2816"  />

      
      <glyph glyph-name="unic8" unicode="&#xc8;" d="M178 0L178 2048L1558 2048L1558 1691L611 1691L611 1203L1487 1203L1487 846L611 846L611 357L1562 357L1562 0L178 0M724 2246L419 2701L812 2701L1025 2246L724 2246Z"  horiz-adv-x="1725" vert-adv-y="2816"  />

      
      <glyph glyph-name="unic9" unicode="&#xc9;" d="M178 0L178 2048L1558 2048L1558 1691L611 1691L611 1203L1487 1203L1487 846L611 846L611 357L1562 357L1562 0L178 0M718 2246L930 2701L1324 2701L1019 2246L718 2246Z"  horiz-adv-x="1725" vert-adv-y="2816"  />

      
      <glyph glyph-name="unica" unicode="&#xca;" d="M178 0L178 2048L1558 2048L1558 1691L611 1691L611 1203L1487 1203L1487 846L611 846L611 357L1562 357L1562 0L178 0M1072 2232L871 2476L670 2232L307 2232L307 2246L712 2686L1029 2686L1435 2246L1435 2232L1072 2232Z"  horiz-adv-x="1725" vert-adv-y="2816"  />

      
      <glyph glyph-name="unicb" unicode="&#xcb;" d="M178 0L178 2048L1558 2048L1558 1691L611 1691L611 1203L1487 1203L1487 846L611 846L611 357L1562 357L1562 0L178 0M566 2258Q480 2258 418 2318.50Q356 2379 356 2462Q356 2547 418 2606Q480 2665 566 2665Q653 2665 713.50 2606Q774 2547 774 2462Q774 2379 713.50 2318.50Q653 2258 566 2258M1178 2258Q1092 2258 1030 2318.50Q968 2379 968 2462Q968 2547 1030 2606Q1092 2665 1178 2665Q1265 2665 1325.50 2606Q1386 2547 1386 2462Q1386 2379 1325.50 2318.50Q1265 2258 1178 2258Z"  horiz-adv-x="1725" vert-adv-y="2816"  />

      
      <glyph glyph-name="uni0112" unicode="&#x0112;" d="M178 0L178 2048L1558 2048L1558 1691L611 1691L611 1203L1487 1203L1487 846L611 846L611 357L1562 357L1562 0L178 0M1358 2560L1358 2329L384 2329L384 2560L1358 2560Z"  horiz-adv-x="1725" vert-adv-y="2816"  />

      
      <glyph glyph-name="uni0114" unicode="&#x0114;" d="M178 0L178 2048L1558 2048L1558 1691L611 1691L611 1203L1487 1203L1487 846L611 846L611 357L1562 357L1562 0L178 0M1069 2584L1366 2584Q1365 2402 1231.50 2291Q1098 2180 871 2180Q643 2180 510 2291Q377 2402 377 2584L672 2584Q671 2515 716.50 2460Q762 2405 871 2405Q977 2405 1023 2459Q1069 2513 1069 2584Z"  horiz-adv-x="1725" vert-adv-y="2816"  />

      
      <glyph glyph-name="uni0116" unicode="&#x0116;" d="M178 0L178 2048L1558 2048L1558 1691L611 1691L611 1203L1487 1203L1487 846L611 846L611 357L1562 357L1562 0L178 0M872 2246Q777 2246 709 2309.50Q641 2373 641 2462Q641 2550 709 2613.50Q777 2677 871 2677Q967 2677 1034.50 2613.50Q1102 2550 1102 2462Q1102 2373 1034.50 2309.50Q967 2246 872 2246Z"  horiz-adv-x="1725" vert-adv-y="2816"  />

      
      <glyph glyph-name="uni0118" unicode="&#x0118;" d="M178 0L178 2048L1558 2048L1558 1691L611 1691L611 1203L1487 1203L1487 846L611 846L611 357L1562 357L1562 0L178 0M1368-574Q1235-574 1145.50-505.50Q1056-437 1033-310Q1018-228 1035.50-145Q1053-62 1105.50 7Q1158 76 1246 115L1563 0Q1469-44 1409-95Q1349-146 1350-218Q1349-266 1374-292Q1399-318 1447-318Q1480-318 1506-309.50Q1532-301 1552-294L1596-514Q1559-535 1501.50-554.50Q1444-574 1368-574Z"  horiz-adv-x="1725" vert-adv-y="2816"  />

      
      <glyph glyph-name="uni011A" unicode="&#x011A;" d="M178 0L178 2048L1558 2048L1558 1691L611 1691L611 1203L1487 1203L1487 846L611 846L611 357L1562 357L1562 0L178 0M670 2686L871 2442L1072 2686L1435 2686L1435 2672L1029 2232L712 2232L307 2672L307 2686L670 2686Z"  horiz-adv-x="1725" vert-adv-y="2816"  />

      
      <glyph glyph-name="uni0204" unicode="&#x0204;" d="M178 0L178 2048L1558 2048L1558 1691L611 1691L611 1203L1487 1203L1487 846L611 846L611 357L1562 357L1562 0L178 0M487 2246L175 2701L575 2701L788 2246L487 2246M981 2246L767 2701L1155 2701L1276 2246L981 2246Z"  horiz-adv-x="1725" vert-adv-y="2816"  />

      
      <glyph glyph-name="uni0206" unicode="&#x0206;" d="M178 0L178 2048L1558 2048L1558 1691L611 1691L611 1203L1487 1203L1487 846L611 846L611 357L1562 357L1562 0L178 0M374 2295Q373 2477 507 2593.50Q641 2710 869 2710Q1097 2710 1231 2593.50Q1365 2477 1365 2295L1068 2295Q1068 2365 1022 2419Q976 2473 869 2473Q761 2473 715.50 2418.50Q670 2364 671 2295L374 2295Z"  horiz-adv-x="1725" vert-adv-y="2816"  />

      
      <glyph glyph-name="uni0228" unicode="&#x0228;" d="M178 0L178 2048L1558 2048L1558 1691L611 1691L611 1203L1487 1203L1487 846L611 846L611 357L1562 357L1562 0L178 0M768 8L964 8L948-79Q1051-95 1116.50-156Q1182-217 1183-322Q1184-471 1045-559.50Q906-648 655-648L651-458Q777-458 848.50-427.50Q920-397 923-333Q925-272 876-240Q827-208 723-195L768 8Z"  horiz-adv-x="1725" vert-adv-y="2816"  />

      
      <glyph glyph-name="uni1E14" unicode="&#x1E14;" d="M178 0L178 2048L1558 2048L1558 1691L611 1691L611 1203L1487 1203L1487 846L611 846L611 357L1562 357L1562 0L178 0M729 2683L386 3036L771 3036L1050 2683L729 2683M1358 2514L1358 2282L384 2282L384 2514L1358 2514Z"  horiz-adv-x="1725" vert-adv-y="2816"  />

      
      <glyph glyph-name="uni1E16" unicode="&#x1E16;" d="M178 0L178 2048L1558 2048L1558 1691L611 1691L611 1203L1487 1203L1487 846L611 846L611 357L1562 357L1562 0L178 0M693 2683L972 3036L1357 3036L1013 2683L693 2683M1358 2514L1358 2282L384 2282L384 2514L1358 2514Z"  horiz-adv-x="1725" vert-adv-y="2816"  />

      
      <glyph glyph-name="uni1E18" unicode="&#x1E18;" d="M178 0L178 2048L1558 2048L1558 1691L611 1691L611 1203L1487 1203L1487 846L611 846L611 357L1562 357L1562 0L178 0M1064-582L863-338L662-582L299-582L299-568L705-128L1022-128L1427-568L1427-582L1064-582Z"  horiz-adv-x="1725" vert-adv-y="2816"  />

      
      <glyph glyph-name="uni1E1A" unicode="&#x1E1A;" d="M178 0L178 2048L1558 2048L1558 1691L611 1691L611 1203L1487 1203L1487 846L611 846L611 357L1562 357L1562 0L178 0M631-549L394-546Q394-355 488.50-252.50Q583-150 719-150Q789-150 839.50-172.50Q890-195 930.50-224.50Q971-254 1008-276.50Q1045-299 1088-299Q1146-299 1176.50-256.50Q1207-214 1207-145L1440-151Q1438-341 1344-443Q1250-545 1115-546Q1040-547 989.50-524Q939-501 901-471.50Q863-442 827-419.50Q791-397 746-397Q694-397 662.50-438Q631-479 631-549Z"  horiz-adv-x="1725" vert-adv-y="2816"  />

      
      <glyph glyph-name="uni1E1C" unicode="&#x1E1C;" d="M178 0L178 2048L1558 2048L1558 1691L611 1691L611 1203L1487 1203L1487 846L611 846L611 357L1562 357L1562 0L178 0M768 8L964 8L948-79Q1051-95 1116.50-156Q1182-217 1183-322Q1184-471 1045-559.50Q906-648 655-648L651-458Q777-458 848.50-427.50Q920-397 923-333Q925-272 876-240Q827-208 723-195L768 8M1069 2584L1366 2584Q1365 2402 1231.50 2291Q1098 2180 871 2180Q643 2180 510 2291Q377 2402 377 2584L672 2584Q671 2515 716.50 2460Q762 2405 871 2405Q977 2405 1023 2459Q1069 2513 1069 2584Z"  horiz-adv-x="1725" vert-adv-y="2816"  />

      
      <glyph glyph-name="uni1EB8" unicode="&#x1EB8;" d="M178 0L178 2048L1558 2048L1558 1691L611 1691L611 1203L1487 1203L1487 846L611 846L611 357L1562 357L1562 0L178 0M864-575Q769-575 701-512Q633-449 633-360Q633-271 701-208Q769-145 864-145Q959-145 1026.50-208Q1094-271 1094-360Q1094-449 1026.50-512Q959-575 864-575Z"  horiz-adv-x="1725" vert-adv-y="2816"  />

      
      <glyph glyph-name="uni1EBA" unicode="&#x1EBA;" d="M178 0L178 2048L1558 2048L1558 1691L611 1691L611 1203L1487 1203L1487 846L611 846L611 357L1562 357L1562 0L178 0M1028 2268L712 2268L690 2448Q796 2453 841 2476.50Q886 2500 885 2539Q886 2593 828.50 2612Q771 2631 685 2631L696 2824Q963 2824 1102.50 2752Q1242 2680 1241 2552Q1242 2461 1175.50 2414.50Q1109 2368 1028 2356L1028 2268Z"  horiz-adv-x="1725" vert-adv-y="2816"  />

      
      <glyph glyph-name="uni1EBC" unicode="&#x1EBC;" d="M178 0L178 2048L1558 2048L1558 1691L611 1691L611 1203L1487 1203L1487 846L611 846L611 357L1562 357L1562 0L178 0M585 2237L348 2240Q348 2431 442.50 2533Q537 2635 673 2636Q743 2636 793.50 2613.50Q844 2591 884.50 2561Q925 2531 962 2508.50Q999 2486 1042 2486Q1100 2487 1130.50 2529.50Q1161 2572 1161 2641L1394 2634Q1392 2445 1298 2342.50Q1204 2240 1069 2239Q994 2239 943.50 2261.50Q893 2284 855 2313.50Q817 2343 781 2366Q745 2389 700 2389Q648 2389 616.50 2348Q585 2307 585 2237Z"  horiz-adv-x="1725" vert-adv-y="2816"  />

      
      <glyph glyph-name="uni1EBE" unicode="&#x1EBE;" d="M178 0L178 2048L1558 2048L1558 1691L611 1691L611 1203L1487 1203L1487 846L611 846L611 357L1562 357L1562 0L178 0M351 2216L754 2527L984 2527L1389 2216L1082 2216L871 2384L657 2216L351 2216M1284 2392L1518 2767L1848 2767L1525 2392L1284 2392Z"  horiz-adv-x="1725" vert-adv-y="2816"  />

      
      <glyph glyph-name="uni1EC0" unicode="&#x1EC0;" d="M178 0L178 2048L1558 2048L1558 1691L611 1691L611 1203L1487 1203L1487 846L611 846L611 357L1562 357L1562 0L178 0M984 2521L1390 2210L1083 2210L871 2378L658 2210L353 2210L755 2521L984 2521M222 2760L457 2386L219 2386L-105 2760L222 2760Z"  horiz-adv-x="1725" vert-adv-y="2816"  />

      
      <glyph glyph-name="uni1EC2" unicode="&#x1EC2;" d="M178 0L178 2048L1558 2048L1558 1691L611 1691L611 1203L1487 1203L1487 846L611 846L611 357L1562 357L1562 0L178 0M990 2516L1384 2205L1091 2205L869 2380L644 2205L351 2205L745 2516L990 2516M1475 2380L1254 2380L1235 2530Q1321 2534 1360 2552Q1399 2570 1399 2605Q1399 2651 1350 2667Q1301 2683 1228 2683L1238 2844Q1441 2844 1548 2784.50Q1655 2725 1655 2617Q1655 2542 1598.50 2502.50Q1542 2463 1475 2452L1475 2380Z"  horiz-adv-x="1725" vert-adv-y="2816"  />

      
      <glyph glyph-name="uni1EC4" unicode="&#x1EC4;" d="M178 0L178 2048L1558 2048L1558 1691L611 1691L611 1203L1487 1203L1487 846L611 846L611 357L1562 357L1562 0L178 0M985 2508L1388 2201L1094 2201L869 2369L649 2201L351 2201L757 2508L985 2508M1089 2848L1237 2797Q1236 2716 1184.50 2648.50Q1133 2581 1047 2581Q1000 2581 960.50 2594Q921 2607 886.50 2625Q852 2643 818.50 2656Q785 2669 747 2669Q713 2669 693.50 2640.50Q674 2612 674 2574L530 2614Q530 2692 580.50 2759.50Q631 2827 718 2827Q757 2827 794.50 2814Q832 2801 870 2784.50Q908 2768 945 2755Q982 2742 1018 2742Q1049 2742 1068.50 2776Q1088 2810 1089 2848Z"  horiz-adv-x="1725" vert-adv-y="2816"  />

      
      <glyph glyph-name="uni1EC6" unicode="&#x1EC6;" d="M178 0L178 2048L1558 2048L1558 1691L611 1691L611 1203L1487 1203L1487 846L611 846L611 357L1562 357L1562 0L178 0M1072 2232L871 2476L670 2232L307 2232L307 2246L712 2686L1029 2686L1435 2246L1435 2232L1072 2232M864-575Q769-575 701-512Q633-449 633-360Q633-271 701-208Q769-145 864-145Q959-145 1026.50-208Q1094-271 1094-360Q1094-449 1026.50-512Q959-575 864-575Z"  horiz-adv-x="1725" vert-adv-y="2816"  />

      
      <glyph glyph-name="uni0246" unicode="&#x0246;" d="M1412 2308L672-260L444-260L1184 2308L1412 2308M178 0L178 2048L1558 2048L1558 1691L611 1691L611 1203L1487 1203L1487 846L611 846L611 357L1562 357L1562 0L178 0Z"  horiz-adv-x="1725" vert-adv-y="2816"  />

      
      <glyph glyph-name="uni018E" unicode="&#x018E;" d="M1546 2048L1546 0L166 0L166 357L1114 357L1114 845L238 845L238 1202L1114 1202L1114 1691L162 1691L162 2048L1546 2048Z"  horiz-adv-x="1725" vert-adv-y="2816"  />

      
      <glyph glyph-name="uni0395" unicode="&#x0395;" d="M178 0L178 2048L1558 2048L1558 1691L611 1691L611 1203L1487 1203L1487 846L611 846L611 357L1562 357L1562 0L178 0Z"  horiz-adv-x="1725" vert-adv-y="2816"  />

      
      <glyph glyph-name="uni0388" unicode="&#x0388;" d="M664 0L664 2048L2044 2048L2044 1691L1097 1691L1097 1203L1973 1203L1973 846L1097 846L1097 357L2048 357L2048 0L664 0M133 1720L240 2195L621 2195L384 1720L133 1720Z"  horiz-adv-x="2210" vert-adv-y="2816"  />

      
      <glyph glyph-name="uni1F18" unicode="&#x1F18;" d="M587 0L587 2048L1967 2048L1967 1691L1020 1691L1020 1203L1896 1203L1896 846L1020 846L1020 357L1971 357L1971 0L587 0M429 2048L429 1917Q429 1831 398.50 1760Q368 1689 315.50 1636.50Q263 1584 196 1552L78 1677Q120 1706 144 1743Q168 1780 178 1825.50Q188 1871 188 1925L188 2048L429 2048Z"  horiz-adv-x="2134" vert-adv-y="2816"  />

      
      <glyph glyph-name="uni1F19" unicode="&#x1F19;" d="M591 0L591 2048L1971 2048L1971 1691L1024 1691L1024 1203L1900 1203L1900 846L1024 846L1024 357L1975 357L1975 0L591 0M129 1917L129 2048L372 2048L372 1925Q373 1877 382 1831.50Q391 1786 414 1746.50Q437 1707 480 1677L362 1552Q263 1600 196.50 1694Q130 1788 129 1917Z"  horiz-adv-x="2138" vert-adv-y="2816"  />

      
      <glyph glyph-name="uni1F1A" unicode="&#x1F1A;" d="M1129 0L1129 2048L2509 2048L2509 1691L1562 1691L1562 1203L2438 1203L2438 846L1562 846L1562 357L2513 357L2513 0L1129 0M1021 1607L1021 1587L888 1587L563 2023L563 2051L860 2051L1021 1607M499 2051L499 1939Q499 1859 468 1788Q437 1717 378.50 1658Q320 1599 237 1555L127 1639Q183 1702 212.50 1776Q242 1850 241 1947L241 2051L499 2051Z"  horiz-adv-x="2676" vert-adv-y="2816"  />

      
      <glyph glyph-name="uni1F1B" unicode="&#x1F1B;" d="M1047 0L1047 2048L2427 2048L2427 1691L1480 1691L1480 1203L2356 1203L2356 846L1480 846L1480 357L2431 357L2431 0L1047 0M937 1614L937 1582L804 1582L479 2020L479 2048L780 2048L937 1614M122 1917L122 2048L367 2048L367 1925Q367 1853 388 1787.50Q409 1722 477 1677L359 1552Q255 1600 188 1694Q121 1788 122 1917Z"  horiz-adv-x="2594" vert-adv-y="2816"  />

      
      <glyph glyph-name="uni1F1C" unicode="&#x1F1C;" d="M1075 0L1075 2048L2455 2048L2455 1691L1508 1691L1508 1203L2384 1203L2384 846L1508 846L1508 357L2459 357L2459 0L1075 0M528 1582L528 1614L689 2048L987 2048L987 2020L661 1582L528 1582M487 2048L487 1917Q486 1832 455.50 1761.50Q425 1691 371.50 1637.50Q318 1584 249 1552L132 1677Q198 1722 219.50 1787.50Q241 1853 241 1925L241 2048L487 2048Z"  horiz-adv-x="2622" vert-adv-y="2816"  />

      
      <glyph glyph-name="uni1F1D" unicode="&#x1F1D;" d="M1113 0L1113 2048L2493 2048L2493 1691L1546 1691L1546 1203L2422 1203L2422 846L1546 846L1546 357L2497 357L2497 0L1113 0M557 1582L557 1614L712 2048L1013 2048L1013 2020L685 1582L557 1582M361 1552Q265 1598 197 1691Q129 1784 129 1917L129 2048L372 2048L372 1925Q372 1844 395 1782Q418 1720 479 1677L361 1552Z"  horiz-adv-x="2660" vert-adv-y="2816"  />

      
      <glyph glyph-name="uni1FC8" unicode="&#x1FC8;" d="M701 0L701 2048L2081 2048L2081 1691L1134 1691L1134 1203L2010 1203L2010 846L1134 846L1134 357L2085 357L2085 0L701 0M452 1580L126 2020L126 2048L424 2048L580 1618L580 1580L452 1580Z"  horiz-adv-x="2248" vert-adv-y="2816"  />

      
      <glyph glyph-name="uni1FC9" unicode="&#x1FC9;" d="M669 0L669 2048L2049 2048L2049 1691L1102 1691L1102 1203L1978 1203L1978 846L1102 846L1102 357L2053 357L2053 0L669 0M148 1728L148 1766L304 2196L685 2196L685 2168L360 1728L148 1728Z"  horiz-adv-x="2216" vert-adv-y="2816"  />

      
      <glyph glyph-name="uni0415" unicode="&#x0415;" d="M178 0L178 2048L1558 2048L1558 1691L611 1691L611 1203L1487 1203L1487 846L611 846L611 357L1562 357L1562 0L178 0Z"  horiz-adv-x="1725" vert-adv-y="2816"  />

      
      <glyph glyph-name="uni0400" unicode="&#x0400;" d="M178 0L178 2048L1558 2048L1558 1691L611 1691L611 1203L1487 1203L1487 846L611 846L611 357L1562 357L1562 0L178 0M724 2246L419 2701L812 2701L1025 2246L724 2246Z"  horiz-adv-x="1725" vert-adv-y="2816"  />

      
      <glyph glyph-name="uni0401" unicode="&#x0401;" d="M178 0L178 2048L1558 2048L1558 1691L611 1691L611 1203L1487 1203L1487 846L611 846L611 357L1562 357L1562 0L178 0M566 2258Q480 2258 418 2318.50Q356 2379 356 2462Q356 2547 418 2606Q480 2665 566 2665Q653 2665 713.50 2606Q774 2547 774 2462Q774 2379 713.50 2318.50Q653 2258 566 2258M1178 2258Q1092 2258 1030 2318.50Q968 2379 968 2462Q968 2547 1030 2606Q1092 2665 1178 2665Q1265 2665 1325.50 2606Q1386 2547 1386 2462Q1386 2379 1325.50 2318.50Q1265 2258 1178 2258Z"  horiz-adv-x="1725" vert-adv-y="2816"  />

      
      <glyph glyph-name="uni04D6" unicode="&#x04D6;" d="M178 0L178 2048L1558 2048L1558 1691L611 1691L611 1203L1487 1203L1487 846L611 846L611 357L1562 357L1562 0L178 0M1069 2584L1366 2584Q1365 2402 1231.50 2291Q1098 2180 871 2180Q643 2180 510 2291Q377 2402 377 2584L672 2584Q671 2515 716.50 2460Q762 2405 871 2405Q977 2405 1023 2459Q1069 2513 1069 2584Z"  horiz-adv-x="1725" vert-adv-y="2816"  />

      
      <glyph glyph-name="uni46" unicode="&#x46;" d="M178 0L178 2048L1534 2048L1534 1691L611 1691L611 1203L1444 1203L1444 846L611 846L611 0L178 0Z"  horiz-adv-x="1647" vert-adv-y="2816"  />

      
      <glyph glyph-name="uni0191" unicode="&#x0191;" d="M241 0L674 0L674-94Q674-243 629-337.50Q584-432 506.50-484Q429-536 329-556Q229-576 117-576Q88-576 37.50-575Q-13-574-58-566L-58-240Q-38-243-14-243Q10-243 28-243Q113-243 177-212.50Q241-182 241-93L241 0M241 0L241 2048L1596 2048L1596 1691L674 1691L674 1203L1506 1203L1506 846L674 846L674 0L241 0Z"  horiz-adv-x="1710" vert-adv-y="2816"  />

      
      <glyph glyph-name="uni1E1E" unicode="&#x1E1E;" d="M178 0L178 2048L1534 2048L1534 1691L611 1691L611 1203L1444 1203L1444 846L611 846L611 0L178 0M869 2246Q774 2246 706 2309.50Q638 2373 638 2462Q638 2550 706 2613.50Q774 2677 868 2677Q964 2677 1031.50 2613.50Q1099 2550 1099 2462Q1099 2373 1031.50 2309.50Q964 2246 869 2246Z"  horiz-adv-x="1647" vert-adv-y="2816"  />

      
      <glyph glyph-name="uni2132" unicode="&#x2132;" d="M1469 2048L1469 0L114 0L114 357L1036 357L1036 845L203 845L203 1202L1036 1202L1036 2048L1469 2048Z"  horiz-adv-x="1647" vert-adv-y="2816"  />

      
      <glyph glyph-name="uni47" unicode="&#x47;" d="M1536 1386Q1515 1459 1477 1515.50Q1439 1572 1384.50 1611.50Q1330 1651 1260.50 1672Q1191 1693 1107 1693Q950 1693 831.50 1615Q713 1537 647 1388.50Q581 1240 581 1026Q581 812 646 662Q711 512 830 433.50Q949 355 1111 355Q1258 355 1362.50 407.50Q1467 460 1522.50 556Q1578 652 1578 783L1666 770L1138 770L1138 1096L1995 1096L1995 838Q1995 568 1881 374.50Q1767 181 1567 76.50Q1367-28 1109-28Q821-28 603 99.50Q385 227 263.50 462.50Q142 698 142 1022Q142 1271 214.50 1466.50Q287 1662 418 1798Q549 1934 723 2005Q897 2076 1100 2076Q1274 2076 1424 2025.50Q1574 1975 1690.50 1883Q1807 1791 1881 1664.50Q1955 1538 1976 1386L1536 1386Z"  horiz-adv-x="2142" vert-adv-y="2816"  />

      
      <glyph glyph-name="uni01E4" unicode="&#x01E4;" d="M2090 662L2090 508L1138 508L1138 662L2090 662M1536 1386Q1515 1459 1477 1515.50Q1439 1572 1384.50 1611.50Q1330 1651 1260.50 1672Q1191 1693 1107 1693Q950 1693 831.50 1615Q713 1537 647 1388.50Q581 1240 581 1026Q581 812 646 662Q711 512 830 433.50Q949 355 1111 355Q1258 355 1362.50 407.50Q1467 460 1522.50 556Q1578 652 1578 783L1666 770L1138 770L1138 1096L1995 1096L1995 838Q1995 568 1881 374.50Q1767 181 1567 76.50Q1367-28 1109-28Q821-28 603 99.50Q385 227 263.50 462.50Q142 698 142 1022Q142 1271 214.50 1466.50Q287 1662 418 1798Q549 1934 723 2005Q897 2076 1100 2076Q1274 2076 1424 2025.50Q1574 1975 1690.50 1883Q1807 1791 1881 1664.50Q1955 1538 1976 1386L1536 1386Z"  horiz-adv-x="2142" vert-adv-y="2816"  />

      
      <glyph glyph-name="uni0193" unicode="&#x0193;" d="M1974 1386L1533 1386L1535 1698Q1537 1833 1586.50 1936Q1636 2039 1722 2109.50Q1808 2180 1920 2216Q2032 2252 2158 2252Q2208 2252 2257 2246.50Q2306 2241 2358 2228L2358 1889Q2329 1892 2299 1895.50Q2269 1899 2239 1899Q2169 1899 2108.50 1884Q2048 1869 2011 1825.50Q1974 1782 1974 1698L1974 1386M1536 1386Q1515 1459 1477 1515.50Q1439 1572 1384.50 1611.50Q1330 1651 1260.50 1672Q1191 1693 1107 1693Q950 1693 831.50 1615Q713 1537 647 1388.50Q581 1240 581 1026Q581 812 646 662Q711 512 830 433.50Q949 355 1111 355Q1258 355 1362.50 407.50Q1467 460 1522.50 556Q1578 652 1578 783L1666 770L1138 770L1138 1096L1995 1096L1995 838Q1995 568 1881 374.50Q1767 181 1567 76.50Q1367-28 1109-28Q821-28 603 99.50Q385 227 263.50 462.50Q142 698 142 1022Q142 1271 214.50 1466.50Q287 1662 418 1798Q549 1934 723 2005Q897 2076 1100 2076Q1274 2076 1424 2025.50Q1574 1975 1690.50 1883Q1807 1791 1881 1664.50Q1955 1538 1976 1386L1536 1386Z"  horiz-adv-x="2349" vert-adv-y="2816"  />

      
      <glyph glyph-name="uni011C" unicode="&#x011C;" d="M1536 1386Q1515 1459 1477 1515.50Q1439 1572 1384.50 1611.50Q1330 1651 1260.50 1672Q1191 1693 1107 1693Q950 1693 831.50 1615Q713 1537 647 1388.50Q581 1240 581 1026Q581 812 646 662Q711 512 830 433.50Q949 355 1111 355Q1258 355 1362.50 407.50Q1467 460 1522.50 556Q1578 652 1578 783L1666 770L1138 770L1138 1096L1995 1096L1995 838Q1995 568 1881 374.50Q1767 181 1567 76.50Q1367-28 1109-28Q821-28 603 99.50Q385 227 263.50 462.50Q142 698 142 1022Q142 1271 214.50 1466.50Q287 1662 418 1798Q549 1934 723 2005Q897 2076 1100 2076Q1274 2076 1424 2025.50Q1574 1975 1690.50 1883Q1807 1791 1881 1664.50Q1955 1538 1976 1386L1536 1386M1292 2232L1091 2476L890 2232L527 2232L527 2246L932 2686L1249 2686L1655 2246L1655 2232L1292 2232Z"  horiz-adv-x="2142" vert-adv-y="2816"  />

      
      <glyph glyph-name="uni011E" unicode="&#x011E;" d="M1536 1386Q1515 1459 1477 1515.50Q1439 1572 1384.50 1611.50Q1330 1651 1260.50 1672Q1191 1693 1107 1693Q950 1693 831.50 1615Q713 1537 647 1388.50Q581 1240 581 1026Q581 812 646 662Q711 512 830 433.50Q949 355 1111 355Q1258 355 1362.50 407.50Q1467 460 1522.50 556Q1578 652 1578 783L1666 770L1138 770L1138 1096L1995 1096L1995 838Q1995 568 1881 374.50Q1767 181 1567 76.50Q1367-28 1109-28Q821-28 603 99.50Q385 227 263.50 462.50Q142 698 142 1022Q142 1271 214.50 1466.50Q287 1662 418 1798Q549 1934 723 2005Q897 2076 1100 2076Q1274 2076 1424 2025.50Q1574 1975 1690.50 1883Q1807 1791 1881 1664.50Q1955 1538 1976 1386L1536 1386M1289 2584L1586 2584Q1585 2402 1451.50 2291Q1318 2180 1091 2180Q863 2180 730 2291Q597 2402 597 2584L892 2584Q891 2515 936.50 2460Q982 2405 1091 2405Q1197 2405 1243 2459Q1289 2513 1289 2584Z"  horiz-adv-x="2142" vert-adv-y="2816"  />

      
      <glyph glyph-name="uni0120" unicode="&#x0120;" d="M1536 1386Q1515 1459 1477 1515.50Q1439 1572 1384.50 1611.50Q1330 1651 1260.50 1672Q1191 1693 1107 1693Q950 1693 831.50 1615Q713 1537 647 1388.50Q581 1240 581 1026Q581 812 646 662Q711 512 830 433.50Q949 355 1111 355Q1258 355 1362.50 407.50Q1467 460 1522.50 556Q1578 652 1578 783L1666 770L1138 770L1138 1096L1995 1096L1995 838Q1995 568 1881 374.50Q1767 181 1567 76.50Q1367-28 1109-28Q821-28 603 99.50Q385 227 263.50 462.50Q142 698 142 1022Q142 1271 214.50 1466.50Q287 1662 418 1798Q549 1934 723 2005Q897 2076 1100 2076Q1274 2076 1424 2025.50Q1574 1975 1690.50 1883Q1807 1791 1881 1664.50Q1955 1538 1976 1386L1536 1386M1091 2246Q996 2246 928 2309.50Q860 2373 860 2462Q860 2550 928 2613.50Q996 2677 1090 2677Q1186 2677 1253.50 2613.50Q1321 2550 1321 2462Q1321 2373 1253.50 2309.50Q1186 2246 1091 2246Z"  horiz-adv-x="2142" vert-adv-y="2816"  />

      
      <glyph glyph-name="uni0122" unicode="&#x0122;" d="M1536 1386Q1515 1459 1477 1515.50Q1439 1572 1384.50 1611.50Q1330 1651 1260.50 1672Q1191 1693 1107 1693Q950 1693 831.50 1615Q713 1537 647 1388.50Q581 1240 581 1026Q581 812 646 662Q711 512 830 433.50Q949 355 1111 355Q1258 355 1362.50 407.50Q1467 460 1522.50 556Q1578 652 1578 783L1666 770L1138 770L1138 1096L1995 1096L1995 838Q1995 568 1881 374.50Q1767 181 1567 76.50Q1367-28 1109-28Q821-28 603 99.50Q385 227 263.50 462.50Q142 698 142 1022Q142 1271 214.50 1466.50Q287 1662 418 1798Q549 1934 723 2005Q897 2076 1100 2076Q1274 2076 1424 2025.50Q1574 1975 1690.50 1883Q1807 1791 1881 1664.50Q1955 1538 1976 1386L1536 1386M768-651L892-157L1286-157L1067-651L768-651Z"  horiz-adv-x="2142" vert-adv-y="2816"  />

      
      <glyph glyph-name="uni01E6" unicode="&#x01E6;" d="M1536 1386Q1515 1459 1477 1515.50Q1439 1572 1384.50 1611.50Q1330 1651 1260.50 1672Q1191 1693 1107 1693Q950 1693 831.50 1615Q713 1537 647 1388.50Q581 1240 581 1026Q581 812 646 662Q711 512 830 433.50Q949 355 1111 355Q1258 355 1362.50 407.50Q1467 460 1522.50 556Q1578 652 1578 783L1666 770L1138 770L1138 1096L1995 1096L1995 838Q1995 568 1881 374.50Q1767 181 1567 76.50Q1367-28 1109-28Q821-28 603 99.50Q385 227 263.50 462.50Q142 698 142 1022Q142 1271 214.50 1466.50Q287 1662 418 1798Q549 1934 723 2005Q897 2076 1100 2076Q1274 2076 1424 2025.50Q1574 1975 1690.50 1883Q1807 1791 1881 1664.50Q1955 1538 1976 1386L1536 1386M890 2686L1091 2442L1292 2686L1655 2686L1655 2672L1249 2232L932 2232L527 2672L527 2686L890 2686Z"  horiz-adv-x="2142" vert-adv-y="2816"  />

      
      <glyph glyph-name="uni01F4" unicode="&#x01F4;" d="M1536 1386Q1515 1459 1477 1515.50Q1439 1572 1384.50 1611.50Q1330 1651 1260.50 1672Q1191 1693 1107 1693Q950 1693 831.50 1615Q713 1537 647 1388.50Q581 1240 581 1026Q581 812 646 662Q711 512 830 433.50Q949 355 1111 355Q1258 355 1362.50 407.50Q1467 460 1522.50 556Q1578 652 1578 783L1666 770L1138 770L1138 1096L1995 1096L1995 838Q1995 568 1881 374.50Q1767 181 1567 76.50Q1367-28 1109-28Q821-28 603 99.50Q385 227 263.50 462.50Q142 698 142 1022Q142 1271 214.50 1466.50Q287 1662 418 1798Q549 1934 723 2005Q897 2076 1100 2076Q1274 2076 1424 2025.50Q1574 1975 1690.50 1883Q1807 1791 1881 1664.50Q1955 1538 1976 1386L1536 1386M937 2246L1149 2701L1543 2701L1238 2246L937 2246Z"  horiz-adv-x="2142" vert-adv-y="2816"  />

      
      <glyph glyph-name="uni1E20" unicode="&#x1E20;" d="M1536 1386Q1515 1459 1477 1515.50Q1439 1572 1384.50 1611.50Q1330 1651 1260.50 1672Q1191 1693 1107 1693Q950 1693 831.50 1615Q713 1537 647 1388.50Q581 1240 581 1026Q581 812 646 662Q711 512 830 433.50Q949 355 1111 355Q1258 355 1362.50 407.50Q1467 460 1522.50 556Q1578 652 1578 783L1666 770L1138 770L1138 1096L1995 1096L1995 838Q1995 568 1881 374.50Q1767 181 1567 76.50Q1367-28 1109-28Q821-28 603 99.50Q385 227 263.50 462.50Q142 698 142 1022Q142 1271 214.50 1466.50Q287 1662 418 1798Q549 1934 723 2005Q897 2076 1100 2076Q1274 2076 1424 2025.50Q1574 1975 1690.50 1883Q1807 1791 1881 1664.50Q1955 1538 1976 1386L1536 1386M1577 2560L1577 2329L603 2329L603 2560L1577 2560Z"  horiz-adv-x="2142" vert-adv-y="2816"  />

      
      <glyph glyph-name="uniE002" unicode="&#xE002;" d="M1109-28Q822-28 604 99.50Q386 227 264 462.50Q142 698 142 1022Q142 1271 216 1466.50Q290 1662 422.50 1798Q555 1934 731 2005Q907 2076 1109 2076Q1283 2076 1434.50 2025.50Q1586 1975 1705 1883.50Q1824 1792 1899.50 1665.50Q1975 1539 1996 1386L1558 1386Q1537 1459 1497.50 1515.50Q1458 1572 1400.50 1611.50Q1343 1651 1271.50 1672Q1200 1693 1116 1693Q960 1693 839 1615Q718 1537 649.50 1388.50Q581 1240 581 1026Q581 812 646.50 662Q712 512 831 433.50Q950 355 1111 355Q1261 355 1367 409.50Q1473 464 1529.50 561.50Q1586 659 1586 787L1668 770L1138 770L1138 1096L2013 1096L2013 0L1717 0L1692 234L1681 234Q1578 109 1437.50 40.50Q1297-28 1109-28Z"  horiz-adv-x="2160" vert-adv-y="2816"  />

      
      <glyph glyph-name="uniE003" unicode="&#xE003;" d="M2110 662L2110 508L1138 508L1138 662L2110 662M1109-28Q822-28 604 99.50Q386 227 264 462.50Q142 698 142 1022Q142 1271 216 1466.50Q290 1662 422.50 1798Q555 1934 731 2005Q907 2076 1109 2076Q1283 2076 1434.50 2025.50Q1586 1975 1705 1883.50Q1824 1792 1899.50 1665.50Q1975 1539 1996 1386L1558 1386Q1537 1459 1497.50 1515.50Q1458 1572 1400.50 1611.50Q1343 1651 1271.50 1672Q1200 1693 1116 1693Q960 1693 839 1615Q718 1537 649.50 1388.50Q581 1240 581 1026Q581 812 646.50 662Q712 512 831 433.50Q950 355 1111 355Q1261 355 1367 409.50Q1473 464 1529.50 561.50Q1586 659 1586 787L1668 770L1138 770L1138 1096L2013 1096L2013 0L1717 0L1692 234L1681 234Q1578 109 1437.50 40.50Q1297-28 1109-28Z"  horiz-adv-x="2162" vert-adv-y="2816"  />

      
      <glyph glyph-name="uniE004" unicode="&#xE004;" d="M1996 1386L1554 1386L1557 1698Q1559 1833 1608 1936Q1657 2039 1743.50 2109.50Q1830 2180 1942 2216Q2054 2252 2179 2252Q2230 2252 2279 2246.50Q2328 2241 2380 2228L2380 1889Q2351 1892 2321 1895.50Q2291 1899 2261 1899Q2191 1899 2130.50 1884Q2070 1869 2033 1825.50Q1996 1782 1996 1698L1996 1386M1109-28Q822-28 604 99.50Q386 227 264 462.50Q142 698 142 1022Q142 1271 216 1466.50Q290 1662 422.50 1798Q555 1934 731 2005Q907 2076 1109 2076Q1283 2076 1434.50 2025.50Q1586 1975 1705 1883.50Q1824 1792 1899.50 1665.50Q1975 1539 1996 1386L1558 1386Q1537 1459 1497.50 1515.50Q1458 1572 1400.50 1611.50Q1343 1651 1271.50 1672Q1200 1693 1116 1693Q960 1693 839 1615Q718 1537 649.50 1388.50Q581 1240 581 1026Q581 812 646.50 662Q712 512 831 433.50Q950 355 1111 355Q1261 355 1367 409.50Q1473 464 1529.50 561.50Q1586 659 1586 787L1668 770L1138 770L1138 1096L2013 1096L2013 0L1717 0L1692 234L1681 234Q1578 109 1437.50 40.50Q1297-28 1109-28Z"  horiz-adv-x="2349" vert-adv-y="2816"  />

      
      <glyph glyph-name="uniE005" unicode="&#xE005;" d="M1109-28Q822-28 604 99.50Q386 227 264 462.50Q142 698 142 1022Q142 1271 216 1466.50Q290 1662 422.50 1798Q555 1934 731 2005Q907 2076 1109 2076Q1283 2076 1434.50 2025.50Q1586 1975 1705 1883.50Q1824 1792 1899.50 1665.50Q1975 1539 1996 1386L1558 1386Q1537 1459 1497.50 1515.50Q1458 1572 1400.50 1611.50Q1343 1651 1271.50 1672Q1200 1693 1116 1693Q960 1693 839 1615Q718 1537 649.50 1388.50Q581 1240 581 1026Q581 812 646.50 662Q712 512 831 433.50Q950 355 1111 355Q1261 355 1367 409.50Q1473 464 1529.50 561.50Q1586 659 1586 787L1668 770L1138 770L1138 1096L2013 1096L2013 0L1717 0L1692 234L1681 234Q1578 109 1437.50 40.50Q1297-28 1109-28M1292 2232L1091 2476L890 2232L527 2232L527 2246L932 2686L1249 2686L1655 2246L1655 2232L1292 2232Z"  horiz-adv-x="2160" vert-adv-y="2816"  />

      
      <glyph glyph-name="uniE006" unicode="&#xE006;" d="M1109-28Q822-28 604 99.50Q386 227 264 462.50Q142 698 142 1022Q142 1271 216 1466.50Q290 1662 422.50 1798Q555 1934 731 2005Q907 2076 1109 2076Q1283 2076 1434.50 2025.50Q1586 1975 1705 1883.50Q1824 1792 1899.50 1665.50Q1975 1539 1996 1386L1558 1386Q1537 1459 1497.50 1515.50Q1458 1572 1400.50 1611.50Q1343 1651 1271.50 1672Q1200 1693 1116 1693Q960 1693 839 1615Q718 1537 649.50 1388.50Q581 1240 581 1026Q581 812 646.50 662Q712 512 831 433.50Q950 355 1111 355Q1261 355 1367 409.50Q1473 464 1529.50 561.50Q1586 659 1586 787L1668 770L1138 770L1138 1096L2013 1096L2013 0L1717 0L1692 234L1681 234Q1578 109 1437.50 40.50Q1297-28 1109-28M1289 2584L1586 2584Q1585 2402 1451.50 2291Q1318 2180 1091 2180Q863 2180 730 2291Q597 2402 597 2584L892 2584Q891 2515 936.50 2460Q982 2405 1091 2405Q1197 2405 1243 2459Q1289 2513 1289 2584Z"  horiz-adv-x="2160" vert-adv-y="2816"  />

      
      <glyph glyph-name="uniE007" unicode="&#xE007;" d="M1109-28Q822-28 604 99.50Q386 227 264 462.50Q142 698 142 1022Q142 1271 216 1466.50Q290 1662 422.50 1798Q555 1934 731 2005Q907 2076 1109 2076Q1283 2076 1434.50 2025.50Q1586 1975 1705 1883.50Q1824 1792 1899.50 1665.50Q1975 1539 1996 1386L1558 1386Q1537 1459 1497.50 1515.50Q1458 1572 1400.50 1611.50Q1343 1651 1271.50 1672Q1200 1693 1116 1693Q960 1693 839 1615Q718 1537 649.50 1388.50Q581 1240 581 1026Q581 812 646.50 662Q712 512 831 433.50Q950 355 1111 355Q1261 355 1367 409.50Q1473 464 1529.50 561.50Q1586 659 1586 787L1668 770L1138 770L1138 1096L2013 1096L2013 0L1717 0L1692 234L1681 234Q1578 109 1437.50 40.50Q1297-28 1109-28M1091 2246Q996 2246 928 2309.50Q860 2373 860 2462Q860 2550 928 2613.50Q996 2677 1090 2677Q1186 2677 1253.50 2613.50Q1321 2550 1321 2462Q1321 2373 1253.50 2309.50Q1186 2246 1091 2246Z"  horiz-adv-x="2160" vert-adv-y="2816"  />

      
      <glyph glyph-name="uniE008" unicode="&#xE008;" d="M1109-28Q822-28 604 99.50Q386 227 264 462.50Q142 698 142 1022Q142 1271 216 1466.50Q290 1662 422.50 1798Q555 1934 731 2005Q907 2076 1109 2076Q1283 2076 1434.50 2025.50Q1586 1975 1705 1883.50Q1824 1792 1899.50 1665.50Q1975 1539 1996 1386L1558 1386Q1537 1459 1497.50 1515.50Q1458 1572 1400.50 1611.50Q1343 1651 1271.50 1672Q1200 1693 1116 1693Q960 1693 839 1615Q718 1537 649.50 1388.50Q581 1240 581 1026Q581 812 646.50 662Q712 512 831 433.50Q950 355 1111 355Q1261 355 1367 409.50Q1473 464 1529.50 561.50Q1586 659 1586 787L1668 770L1138 770L1138 1096L2013 1096L2013 0L1717 0L1692 234L1681 234Q1578 109 1437.50 40.50Q1297-28 1109-28M768-651L892-157L1286-157L1067-651L768-651Z"  horiz-adv-x="2160" vert-adv-y="2816"  />

      
      <glyph glyph-name="uniE009" unicode="&#xE009;" d="M1109-28Q822-28 604 99.50Q386 227 264 462.50Q142 698 142 1022Q142 1271 216 1466.50Q290 1662 422.50 1798Q555 1934 731 2005Q907 2076 1109 2076Q1283 2076 1434.50 2025.50Q1586 1975 1705 1883.50Q1824 1792 1899.50 1665.50Q1975 1539 1996 1386L1558 1386Q1537 1459 1497.50 1515.50Q1458 1572 1400.50 1611.50Q1343 1651 1271.50 1672Q1200 1693 1116 1693Q960 1693 839 1615Q718 1537 649.50 1388.50Q581 1240 581 1026Q581 812 646.50 662Q712 512 831 433.50Q950 355 1111 355Q1261 355 1367 409.50Q1473 464 1529.50 561.50Q1586 659 1586 787L1668 770L1138 770L1138 1096L2013 1096L2013 0L1717 0L1692 234L1681 234Q1578 109 1437.50 40.50Q1297-28 1109-28M890 2686L1091 2442L1292 2686L1655 2686L1655 2672L1249 2232L932 2232L527 2672L527 2686L890 2686Z"  horiz-adv-x="2160" vert-adv-y="2816"  />

      
      <glyph glyph-name="uniE00A" unicode="&#xE00A;" d="M1109-28Q822-28 604 99.50Q386 227 264 462.50Q142 698 142 1022Q142 1271 216 1466.50Q290 1662 422.50 1798Q555 1934 731 2005Q907 2076 1109 2076Q1283 2076 1434.50 2025.50Q1586 1975 1705 1883.50Q1824 1792 1899.50 1665.50Q1975 1539 1996 1386L1558 1386Q1537 1459 1497.50 1515.50Q1458 1572 1400.50 1611.50Q1343 1651 1271.50 1672Q1200 1693 1116 1693Q960 1693 839 1615Q718 1537 649.50 1388.50Q581 1240 581 1026Q581 812 646.50 662Q712 512 831 433.50Q950 355 1111 355Q1261 355 1367 409.50Q1473 464 1529.50 561.50Q1586 659 1586 787L1668 770L1138 770L1138 1096L2013 1096L2013 0L1717 0L1692 234L1681 234Q1578 109 1437.50 40.50Q1297-28 1109-28M937 2246L1149 2701L1543 2701L1238 2246L937 2246Z"  horiz-adv-x="2160" vert-adv-y="2816"  />

      
      <glyph glyph-name="uniE00B" unicode="&#xE00B;" d="M1109-28Q822-28 604 99.50Q386 227 264 462.50Q142 698 142 1022Q142 1271 216 1466.50Q290 1662 422.50 1798Q555 1934 731 2005Q907 2076 1109 2076Q1283 2076 1434.50 2025.50Q1586 1975 1705 1883.50Q1824 1792 1899.50 1665.50Q1975 1539 1996 1386L1558 1386Q1537 1459 1497.50 1515.50Q1458 1572 1400.50 1611.50Q1343 1651 1271.50 1672Q1200 1693 1116 1693Q960 1693 839 1615Q718 1537 649.50 1388.50Q581 1240 581 1026Q581 812 646.50 662Q712 512 831 433.50Q950 355 1111 355Q1261 355 1367 409.50Q1473 464 1529.50 561.50Q1586 659 1586 787L1668 770L1138 770L1138 1096L2013 1096L2013 0L1717 0L1692 234L1681 234Q1578 109 1437.50 40.50Q1297-28 1109-28M1577 2560L1577 2329L603 2329L603 2560L1577 2560Z"  horiz-adv-x="2160" vert-adv-y="2816"  />

      
      <glyph glyph-name="uni48" unicode="&#x48;" d="M178 0L178 2048L611 2048L611 1203L1490 1203L1490 2048L1922 2048L1922 0L1490 0L1490 846L611 846L611 0L178 0Z"  horiz-adv-x="2101" vert-adv-y="2816"  />

      
      <glyph glyph-name="uni1E28" unicode="&#x1E28;" d="M178 0L178 2048L611 2048L611 1203L1490 1203L1490 2048L1922 2048L1922 0L1490 0L1490 846L611 846L611 0L178 0M300 6L496 6L480-81Q583-97 648.50-158Q714-219 715-324Q716-473 577-561.50Q438-650 187-650L183-460Q309-460 380.50-429.50Q452-399 455-335Q457-274 408-242Q359-210 255-197L300 6Z"  horiz-adv-x="2101" vert-adv-y="2816"  />

      
      <glyph glyph-name="uni0124" unicode="&#x0124;" d="M178 0L178 2048L611 2048L611 1203L1490 1203L1490 2048L1922 2048L1922 0L1490 0L1490 846L611 846L611 0L178 0M1256 2234L1055 2478L854 2234L491 2234L491 2248L896 2688L1213 2688L1619 2248L1619 2234L1256 2234Z"  horiz-adv-x="2101" vert-adv-y="2816"  />

      
      <glyph glyph-name="uni021E" unicode="&#x021E;" d="M178 0L178 2048L611 2048L611 1203L1490 1203L1490 2048L1922 2048L1922 0L1490 0L1490 846L611 846L611 0L178 0M854 2688L1055 2444L1256 2688L1619 2688L1619 2674L1213 2234L896 2234L491 2674L491 2688L854 2688Z"  horiz-adv-x="2101" vert-adv-y="2816"  />

      
      <glyph glyph-name="uni1E22" unicode="&#x1E22;" d="M178 0L178 2048L611 2048L611 1203L1490 1203L1490 2048L1922 2048L1922 0L1490 0L1490 846L611 846L611 0L178 0M1055 2248Q960 2248 892 2311.50Q824 2375 824 2464Q824 2552 892 2615.50Q960 2679 1054 2679Q1150 2679 1217.50 2615.50Q1285 2552 1285 2464Q1285 2375 1217.50 2311.50Q1150 2248 1055 2248Z"  horiz-adv-x="2101" vert-adv-y="2816"  />

      
      <glyph glyph-name="uni1E24" unicode="&#x1E24;" d="M178 0L178 2048L611 2048L611 1203L1490 1203L1490 2048L1922 2048L1922 0L1490 0L1490 846L611 846L611 0L178 0M1050-575Q955-575 887-512Q819-449 819-360Q819-271 887-208Q955-145 1050-145Q1145-145 1212.50-208Q1280-271 1280-360Q1280-449 1212.50-512Q1145-575 1050-575Z"  horiz-adv-x="2101" vert-adv-y="2816"  />

      
      <glyph glyph-name="uni1E26" unicode="&#x1E26;" d="M178 0L178 2048L611 2048L611 1203L1490 1203L1490 2048L1922 2048L1922 0L1490 0L1490 846L611 846L611 0L178 0M750 2260Q664 2260 602 2320.50Q540 2381 540 2464Q540 2549 602 2608Q664 2667 750 2667Q837 2667 897.50 2608Q958 2549 958 2464Q958 2381 897.50 2320.50Q837 2260 750 2260M1362 2260Q1276 2260 1214 2320.50Q1152 2381 1152 2464Q1152 2549 1214 2608Q1276 2667 1362 2667Q1449 2667 1509.50 2608Q1570 2549 1570 2464Q1570 2381 1509.50 2320.50Q1449 2260 1362 2260Z"  horiz-adv-x="2101" vert-adv-y="2816"  />

      
      <glyph glyph-name="uni1E2A" unicode="&#x1E2A;" d="M178 0L178 2048L611 2048L611 1203L1490 1203L1490 2048L1922 2048L1922 0L1490 0L1490 846L611 846L611 0L178 0M1252-113L1546-113Q1545-233 1485-327Q1425-421 1314-474.50Q1203-528 1050-528Q827-528 692-412.50Q557-297 557-113L852-113Q851-183 897-238.50Q943-294 1051-294Q1157-294 1204-237Q1251-180 1252-113Z"  horiz-adv-x="2101" vert-adv-y="2816"  />

      
      <glyph glyph-name="uni0126" unicode="&#x0126;" d="M2182 1693L2182 1451L100 1451L100 1693L2182 1693M269 0L269 2048L702 2048L702 1203L1580 1203L1580 2048L2013 2048L2013 0L1580 0L1580 846L702 846L702 0L269 0Z"  horiz-adv-x="2282" vert-adv-y="2816"  />

      
      <glyph glyph-name="uni04C7" unicode="&#x04C7;" d="M1490 0L1922 0L1922-99Q1922-157 1909.50-225Q1897-293 1860-360.50Q1823-428 1751-484Q1679-540 1563-573.50Q1447-607 1274-607Q1226-607 1179-603Q1132-599 1117-595L1117-250Q1140-251 1176.50-254.50Q1213-258 1238-258Q1301-258 1358.50-243Q1416-228 1453-188.50Q1490-149 1490-74L1490 0M178 0L178 2048L611 2048L611 1203L1490 1203L1490 2048L1922 2048L1922 0L1490 0L1490 846L611 846L611 0L178 0Z"  horiz-adv-x="2101" vert-adv-y="2816"  />

      
      <glyph glyph-name="uni04A2" unicode="&#x04A2;" d="M178 0L178 2048L611 2048L611 1203L1490 1203L1490 2048L1922 2048L1922 0L1490 0L1490 846L611 846L611 0L178 0M2327 294L2327-494L1913-494L1913 294L2327 294Z"  horiz-adv-x="2405" vert-adv-y="2816"  />

      
      <glyph glyph-name="uni04C9" unicode="&#x04C9;" d="M178 0L178 2048L611 2048L611 1203L1490 1203L1490 2048L1922 2048L1922 0L1490 0L1490 846L611 846L611 0L178 0M2262 233L2262-6Q2263-115 2230-222Q2197-329 2139-422.50Q2081-516 2005-586L1778-486Q1811-421 1844-355.50Q1877-290 1900-212Q1923-134 1922-31L1922 233L2262 233Z"  horiz-adv-x="2340" vert-adv-y="2816"  />

      
      <glyph glyph-name="uni04A4" unicode="&#x04A4;" d="M2734 2048L2734 1691L1922 1691L1922 0L1490 0L1490 846L611 846L611 0L178 0L178 2048L611 2048L611 1203L1490 1203L1490 2048L2734 2048Z"  horiz-adv-x="2834" vert-adv-y="2816"  />

      
      <glyph glyph-name="uni01F6" unicode="&#x01F6;" d="M2243-28Q2013-28 1844 56.50Q1675 141 1582.50 301.50Q1490 462 1490 689L1490 846L611 846L611 0L178 0L178 2048L611 2048L611 1203L1490 1203L1490 2048L1922 2048L1922 689Q1922 515 2007.50 426Q2093 337 2243 337Q2394 337 2476.50 426Q2559 515 2559 689L2559 1495L2992 1495L2992 689Q2992 460 2900 300Q2808 140 2640 56Q2472-28 2243-28Z"  horiz-adv-x="3162" vert-adv-y="2816"  />

      
      <glyph glyph-name="uni0397" unicode="&#x0397;" d="M178 0L178 2048L611 2048L611 1203L1490 1203L1490 2048L1922 2048L1922 0L1490 0L1490 846L611 846L611 0L178 0Z"  horiz-adv-x="2101" vert-adv-y="2816"  />

      
      <glyph glyph-name="uni0389" unicode="&#x0389;" d="M692 0L692 2048L1125 2048L1125 1203L2004 1203L2004 2048L2436 2048L2436 0L2004 0L2004 846L1125 846L1125 0L692 0M173 1720L280 2195L661 2195L424 1720L173 1720Z"  horiz-adv-x="2615" vert-adv-y="2816"  />

      
      <glyph glyph-name="uni1F28" unicode="&#x1F28;" d="M656 0L656 2048L1089 2048L1089 1203L1968 1203L1968 2048L2400 2048L2400 0L1968 0L1968 846L1089 846L1089 0L656 0M510 2048L510 1917Q510 1831 479.50 1760Q449 1689 396.50 1636.50Q344 1584 277 1552L159 1677Q201 1706 225 1743Q249 1780 259 1825.50Q269 1871 269 1925L269 2048L510 2048Z"  horiz-adv-x="2579" vert-adv-y="2816"  />

      
      <glyph glyph-name="uni1F29" unicode="&#x1F29;" d="M620 0L620 2048L1053 2048L1053 1203L1932 1203L1932 2048L2364 2048L2364 0L1932 0L1932 846L1053 846L1053 0L620 0M169 1917L169 2048L412 2048L412 1925Q413 1877 422 1831.50Q431 1786 454 1746.50Q477 1707 520 1677L402 1552Q303 1600 236.50 1694Q170 1788 169 1917Z"  horiz-adv-x="2542" vert-adv-y="2816"  />

      
      <glyph glyph-name="uni1F2A" unicode="&#x1F2A;" d="M1158 0L1158 2048L1591 2048L1591 1203L2470 1203L2470 2048L2902 2048L2902 0L2470 0L2470 846L1591 846L1591 0L1158 0M1061 1607L1061 1587L928 1587L603 2023L603 2051L900 2051L1061 1607M539 2051L539 1939Q539 1859 508 1788Q477 1717 418.50 1658Q360 1599 277 1555L167 1639Q223 1702 252.50 1776Q282 1850 281 1947L281 2051L539 2051Z"  horiz-adv-x="3081" vert-adv-y="2816"  />

      
      <glyph glyph-name="uni1F2B" unicode="&#x1F2B;" d="M1076 0L1076 2048L1509 2048L1509 1203L2388 1203L2388 2048L2820 2048L2820 0L2388 0L2388 846L1509 846L1509 0L1076 0M977 1614L977 1582L844 1582L519 2020L519 2048L820 2048L977 1614M162 1917L162 2048L407 2048L407 1925Q407 1853 428 1787.50Q449 1722 517 1677L399 1552Q295 1600 228 1694Q161 1788 162 1917Z"  horiz-adv-x="2998" vert-adv-y="2816"  />

      
      <glyph glyph-name="uni1F2C" unicode="&#x1F2C;" d="M1104 0L1104 2048L1537 2048L1537 1203L2416 1203L2416 2048L2848 2048L2848 0L2416 0L2416 846L1537 846L1537 0L1104 0M568 1582L568 1614L729 2048L1027 2048L1027 2020L701 1582L568 1582M527 2048L527 1917Q526 1832 495.50 1761.50Q465 1691 411.50 1637.50Q358 1584 289 1552L172 1677Q238 1722 259.50 1787.50Q281 1853 281 1925L281 2048L527 2048Z"  horiz-adv-x="3026" vert-adv-y="2816"  />

      
      <glyph glyph-name="uni1F2D" unicode="&#x1F2D;" d="M1142 0L1142 2048L1575 2048L1575 1203L2454 1203L2454 2048L2886 2048L2886 0L2454 0L2454 846L1575 846L1575 0L1142 0M597 1582L597 1614L752 2048L1053 2048L1053 2020L725 1582L597 1582M401 1552Q305 1598 237 1691Q169 1784 169 1917L169 2048L412 2048L412 1925Q412 1844 435 1782Q458 1720 519 1677L401 1552Z"  horiz-adv-x="3065" vert-adv-y="2816"  />

      
      <glyph glyph-name="uni1F2E" unicode="&#x1F2E;" d="M910 0L910 2048L1343 2048L1343 1203L2222 1203L2222 2048L2654 2048L2654 0L2222 0L2222 846L1343 846L1343 0L910 0M817 2389L990 2336Q990 2237 925 2162.50Q860 2088 758 2088Q703 2088 661 2102Q619 2116 583.50 2134.50Q548 2153 511 2167Q474 2181 428 2181Q386 2181 360 2145.50Q334 2110 334 2061L161 2110Q161 2209 225.50 2286Q290 2363 392 2363Q438 2363 478.50 2349.50Q519 2336 559 2317.50Q599 2299 639 2285Q679 2271 722 2271Q762 2271 789.50 2305.50Q817 2340 817 2389M712 2018L712 1907Q712 1804 653.50 1726Q595 1648 505 1608L393 1710Q453 1745 470 1800.50Q487 1856 487 1913L487 2018L712 2018Z"  horiz-adv-x="2833" vert-adv-y="2816"  />

      
      <glyph glyph-name="uni1F2F" unicode="&#x1F2F;" d="M948 0L948 2048L1381 2048L1381 1203L2260 1203L2260 2048L2692 2048L2692 0L2260 0L2260 846L1381 846L1381 0L948 0M485 1907L485 2018L709 2018L709 1913Q709 1856 726.50 1800.50Q744 1745 804 1710L687 1608Q605 1646 545 1723Q485 1800 485 1907M817 2389L990 2336Q990 2237 925 2162.50Q860 2088 758 2088Q703 2088 661 2102Q619 2116 583.50 2134.50Q548 2153 511 2167Q474 2181 428 2181Q386 2181 360 2145.50Q334 2110 334 2061L161 2110Q161 2209 225.50 2286Q290 2363 392 2363Q438 2363 478.50 2349.50Q519 2336 559 2317.50Q599 2299 639 2285Q679 2271 722 2271Q762 2271 789.50 2305.50Q817 2340 817 2389Z"  horiz-adv-x="2871" vert-adv-y="2816"  />

      
      <glyph glyph-name="uni1FCA" unicode="&#x1FCA;" d="M730 0L730 2048L1163 2048L1163 1203L2042 1203L2042 2048L2474 2048L2474 0L2042 0L2042 846L1163 846L1163 0L730 0M492 1580L166 2020L166 2048L464 2048L620 1618L620 1580L492 1580Z"  horiz-adv-x="2653" vert-adv-y="2816"  />

      
      <glyph glyph-name="uni1FCB" unicode="&#x1FCB;" d="M698 0L698 2048L1131 2048L1131 1203L2010 1203L2010 2048L2442 2048L2442 0L2010 0L2010 846L1131 846L1131 0L698 0M188 1728L188 1766L344 2196L725 2196L725 2168L400 1728L188 1728Z"  horiz-adv-x="2621" vert-adv-y="2816"  />

      
      <glyph glyph-name="uni041D" unicode="&#x041D;" d="M178 0L178 2048L611 2048L611 1203L1490 1203L1490 2048L1922 2048L1922 0L1490 0L1490 846L611 846L611 0L178 0Z"  horiz-adv-x="2101" vert-adv-y="2816"  />

      
      <glyph glyph-name="uni1F98" unicode="&#x1F98;" d="M592 0L592 2048L1025 2048L1025 1203L1904 1203L1904 2048L2336 2048L2336 0L1904 0L1904 846L1025 846L1025 0L592 0M1601-680Q1493-680 1416.50-619Q1340-558 1340-422L1340-132L1594-132L1594-420Q1594-462 1610.50-482Q1627-502 1669-502Q1690-502 1705.50-500Q1721-498 1732-498L1732-662Q1705-669 1674-674.50Q1643-680 1601-680M446 2048L446 1917Q446 1831 415.50 1760Q385 1689 332.50 1636.50Q280 1584 213 1552L95 1677Q137 1706 161 1743Q185 1780 195 1825.50Q205 1871 205 1925L205 2048L446 2048Z"  horiz-adv-x="2515" vert-adv-y="2816"  />

      
      <glyph glyph-name="uni1F99" unicode="&#x1F99;" d="M620 0L620 2048L1053 2048L1053 1203L1932 1203L1932 2048L2364 2048L2364 0L1932 0L1932 846L1053 846L1053 0L620 0M1629-680Q1521-680 1444.50-619Q1368-558 1368-422L1368-132L1622-132L1622-420Q1622-462 1638.50-482Q1655-502 1697-502Q1718-502 1733.50-500Q1749-498 1760-498L1760-662Q1733-669 1702-674.50Q1671-680 1629-680M169 1917L169 2048L412 2048L412 1925Q413 1877 422 1831.50Q431 1786 454 1746.50Q477 1707 520 1677L402 1552Q303 1600 236.50 1694Q170 1788 169 1917Z"  horiz-adv-x="2542" vert-adv-y="2816"  />

      
      <glyph glyph-name="uni1F9A" unicode="&#x1F9A;" d="M1158 0L1158 2048L1591 2048L1591 1203L2470 1203L2470 2048L2902 2048L2902 0L2470 0L2470 846L1591 846L1591 0L1158 0M2167-680Q2059-680 1982.50-619Q1906-558 1906-422L1906-132L2160-132L2160-420Q2160-462 2176.50-482Q2193-502 2235-502Q2256-502 2271.50-500Q2287-498 2298-498L2298-662Q2271-669 2240-674.50Q2209-680 2167-680M1061 1607L1061 1587L928 1587L603 2023L603 2051L900 2051L1061 1607M539 2051L539 1939Q539 1859 508 1788Q477 1717 418.50 1658Q360 1599 277 1555L167 1639Q223 1702 252.50 1776Q282 1850 281 1947L281 2051L539 2051Z"  horiz-adv-x="3081" vert-adv-y="2816"  />

      
      <glyph glyph-name="uni1F9B" unicode="&#x1F9B;" d="M1076 0L1076 2048L1509 2048L1509 1203L2388 1203L2388 2048L2820 2048L2820 0L2388 0L2388 846L1509 846L1509 0L1076 0M2085-680Q1977-680 1900.50-619Q1824-558 1824-422L1824-132L2078-132L2078-420Q2078-462 2094.50-482Q2111-502 2153-502Q2174-502 2189.50-500Q2205-498 2216-498L2216-662Q2189-669 2158-674.50Q2127-680 2085-680M977 1614L977 1582L844 1582L519 2020L519 2048L820 2048L977 1614M162 1917L162 2048L407 2048L407 1925Q407 1853 428 1787.50Q449 1722 517 1677L399 1552Q295 1600 228 1694Q161 1788 162 1917Z"  horiz-adv-x="2998" vert-adv-y="2816"  />

      
      <glyph glyph-name="uni1F9C" unicode="&#x1F9C;" d="M1104 0L1104 2048L1537 2048L1537 1203L2416 1203L2416 2048L2848 2048L2848 0L2416 0L2416 846L1537 846L1537 0L1104 0M2113-680Q2005-680 1928.50-619Q1852-558 1852-422L1852-132L2106-132L2106-420Q2106-462 2122.50-482Q2139-502 2181-502Q2202-502 2217.50-500Q2233-498 2244-498L2244-662Q2217-669 2186-674.50Q2155-680 2113-680M568 1582L568 1614L729 2048L1027 2048L1027 2020L701 1582L568 1582M527 2048L527 1917Q526 1832 495.50 1761.50Q465 1691 411.50 1637.50Q358 1584 289 1552L172 1677Q238 1722 259.50 1787.50Q281 1853 281 1925L281 2048L527 2048Z"  horiz-adv-x="3026" vert-adv-y="2816"  />

      
      <glyph glyph-name="uni1F9D" unicode="&#x1F9D;" d="M1142 0L1142 2048L1575 2048L1575 1203L2454 1203L2454 2048L2886 2048L2886 0L2454 0L2454 846L1575 846L1575 0L1142 0M2151-680Q2043-680 1966.50-619Q1890-558 1890-422L1890-132L2144-132L2144-420Q2144-462 2160.50-482Q2177-502 2219-502Q2240-502 2255.50-500Q2271-498 2282-498L2282-662Q2255-669 2224-674.50Q2193-680 2151-680M597 1582L597 1614L752 2048L1053 2048L1053 2020L725 1582L597 1582M401 1552Q305 1598 237 1691Q169 1784 169 1917L169 2048L412 2048L412 1925Q412 1844 435 1782Q458 1720 519 1677L401 1552Z"  horiz-adv-x="3065" vert-adv-y="2816"  />

      
      <glyph glyph-name="uni1F9E" unicode="&#x1F9E;" d="M910 0L910 2048L1343 2048L1343 1203L2222 1203L2222 2048L2654 2048L2654 0L2222 0L2222 846L1343 846L1343 0L910 0M1919-680Q1811-680 1734.50-619Q1658-558 1658-422L1658-132L1912-132L1912-420Q1912-462 1928.50-482Q1945-502 1987-502Q2008-502 2023.50-500Q2039-498 2050-498L2050-662Q2023-669 1992-674.50Q1961-680 1919-680M817 2389L990 2336Q990 2237 925 2162.50Q860 2088 758 2088Q703 2088 661 2102Q619 2116 583.50 2134.50Q548 2153 511 2167Q474 2181 428 2181Q386 2181 360 2145.50Q334 2110 334 2061L161 2110Q161 2209 225.50 2286Q290 2363 392 2363Q438 2363 478.50 2349.50Q519 2336 559 2317.50Q599 2299 639 2285Q679 2271 722 2271Q762 2271 789.50 2305.50Q817 2340 817 2389M712 2018L712 1907Q712 1804 653.50 1726Q595 1648 505 1608L393 1710Q453 1745 470 1800.50Q487 1856 487 1913L487 2018L712 2018Z"  horiz-adv-x="2833" vert-adv-y="2816"  />

      
      <glyph glyph-name="uni1F9F" unicode="&#x1F9F;" d="M948 0L948 2048L1381 2048L1381 1203L2260 1203L2260 2048L2692 2048L2692 0L2260 0L2260 846L1381 846L1381 0L948 0M1957-680Q1849-680 1772.50-619Q1696-558 1696-422L1696-132L1950-132L1950-420Q1950-462 1966.50-482Q1983-502 2025-502Q2046-502 2061.50-500Q2077-498 2088-498L2088-662Q2061-669 2030-674.50Q1999-680 1957-680M485 1907L485 2018L709 2018L709 1913Q709 1856 726.50 1800.50Q744 1745 804 1710L687 1608Q605 1646 545 1723Q485 1800 485 1907M817 2389L990 2336Q990 2237 925 2162.50Q860 2088 758 2088Q703 2088 661 2102Q619 2116 583.50 2134.50Q548 2153 511 2167Q474 2181 428 2181Q386 2181 360 2145.50Q334 2110 334 2061L161 2110Q161 2209 225.50 2286Q290 2363 392 2363Q438 2363 478.50 2349.50Q519 2336 559 2317.50Q599 2299 639 2285Q679 2271 722 2271Q762 2271 789.50 2305.50Q817 2340 817 2389Z"  horiz-adv-x="2871" vert-adv-y="2816"  />

      
      <glyph glyph-name="uni1FCC" unicode="&#x1FCC;" d="M178 0L178 2048L611 2048L611 1203L1490 1203L1490 2048L1922 2048L1922 0L1490 0L1490 846L611 846L611 0L178 0M1187-680Q1079-680 1002.50-619Q926-558 926-422L926-132L1180-132L1180-420Q1180-462 1196.50-482Q1213-502 1255-502Q1276-502 1291.50-500Q1307-498 1318-498L1318-662Q1291-669 1260-674.50Q1229-680 1187-680Z"  horiz-adv-x="2101" vert-adv-y="2816"  />

      
      <glyph glyph-name="uni49" unicode="&#x49;" d="M611 2048L611 0L178 0L178 2048L611 2048Z"  horiz-adv-x="790" vert-adv-y="2816"  />

      
      </font>
</defs>
</svg>
